<svg width="30" height="31" viewBox="0 0 30 31" fill="none" xmlns="http://www.w3.org/2000/svg">
<g clip-path="url(#clip0_62_783)">
<path fill-rule="evenodd" clip-rule="evenodd" d="M2.67859 25.4107V5.32143C2.67859 4.04271 3.18656 2.81636 4.09075 1.91216C4.99495 1.00797 6.22129 0.5 7.50002 0.5L22.5 0.5C23.7787 0.5 25.0051 1.00797 25.9093 1.91216C26.8135 2.81636 27.3214 4.04271 27.3214 5.32143V21.9286C27.3214 22.3548 27.1521 22.7636 26.8507 23.065C26.5493 23.3664 26.1405 23.5357 25.7143 23.5357H25.1786V27.2857H25.7143C26.1405 27.2857 26.5493 27.455 26.8507 27.7564C27.1521 28.0578 27.3214 28.4666 27.3214 28.8929C27.3214 29.3191 27.1521 29.7279 26.8507 30.0293C26.5493 30.3307 26.1405 30.5 25.7143 30.5H7.76787C6.41811 30.5 5.12363 29.9638 4.16921 29.0094C3.21478 28.055 2.67859 26.7605 2.67859 25.4107ZM21.9643 23.5357H7.76787C7.27059 23.5357 6.79368 23.7333 6.44205 24.0849C6.09042 24.4365 5.89287 24.9134 5.89287 25.4107C5.89287 25.908 6.09042 26.3849 6.44205 26.7365C6.79368 27.0882 7.27059 27.2857 7.76787 27.2857H21.9643V23.5357ZM23.1643 10.7257C23.074 10.5513 22.9374 10.4052 22.7697 10.3031C22.6019 10.2011 22.4093 10.1471 22.2129 10.1471H17.2543C16.9701 10.1471 16.6976 10.26 16.4967 10.461C16.2958 10.6619 16.1829 10.9344 16.1829 11.2186C16.1829 11.5027 16.2958 11.7753 16.4967 11.9762C16.6976 12.1771 16.9701 12.29 17.2543 12.29H20.1429L16.0693 18.0414C15.9557 18.2018 15.8884 18.3903 15.8748 18.5863C15.8611 18.7823 15.9017 18.9783 15.9919 19.1529C16.0822 19.3274 16.2187 19.4738 16.3865 19.5759C16.5544 19.6781 16.7471 19.7321 16.9436 19.7321H22.5236C22.8077 19.7321 23.0803 19.6193 23.2812 19.4183C23.4821 19.2174 23.595 18.9449 23.595 18.6607C23.595 18.3766 23.4821 18.104 23.2812 17.9031C23.0803 17.7022 22.8077 17.5893 22.5236 17.5893H19.0157L23.0872 11.8379C23.2012 11.6776 23.2689 11.4891 23.2829 11.2929C23.2968 11.0967 23.2544 10.9005 23.1643 10.7257ZM12.4607 6.13571C12.3318 5.75196 12.0855 5.41839 11.7568 5.18208C11.4281 4.94577 11.0334 4.81864 10.6286 4.81864C10.2237 4.81864 9.82911 4.94577 9.50038 5.18208C9.17165 5.41839 8.92543 5.75196 8.79645 6.13571L7.34573 10.4857L7.33073 10.5329L6.51002 12.9886C6.46542 13.1222 6.44758 13.2634 6.45752 13.4039C6.46747 13.5445 6.505 13.6817 6.56798 13.8078C6.63095 13.9338 6.71814 14.0463 6.82457 14.1386C6.93099 14.231 7.05456 14.3015 7.18823 14.3461C7.45818 14.4362 7.75286 14.4153 8.00744 14.2881C8.1335 14.2251 8.24592 14.1379 8.33828 14.0315C8.43064 13.9251 8.50113 13.8015 8.54573 13.6679L9.1243 11.9193H12.1286L12.7114 13.6679C12.8015 13.9375 12.995 14.1604 13.2494 14.2874C13.5038 14.4143 13.7982 14.4351 14.0679 14.345C14.3375 14.2549 14.5604 14.0614 14.6874 13.807C14.8144 13.5526 14.8351 13.2582 14.745 12.9886L13.9264 10.5329L13.9093 10.4857L12.4607 6.13571ZM9.83573 9.77429L10.6243 7.41286L11.4107 9.77429H9.83573Z" fill="white"/>
</g>
<defs>
<clipPath id="clip0_62_783">
<rect width="30" height="30" fill="white" transform="translate(0 0.5)"/>
</clipPath>
</defs>
</svg>
