<svg width="25" height="26" viewBox="0 0 25 26" fill="none" xmlns="http://www.w3.org/2000/svg">
<path d="M18.75 2.58337V5.70837H22.9167C22.8882 8.2227 22.4932 9.99586 21.7316 11.0279L21.6146 11.1771C21.0023 11.9119 19.9572 12.4342 18.4791 12.7439C17.796 14.9808 15.8921 16.6851 13.5439 17.0799C13.542 17.108 13.5417 17.1373 13.5417 17.1667C13.5417 19.4679 15.4072 21.3334 17.7084 21.3334V23.4167H7.29167V21.3334C9.59285 21.3334 11.4584 19.4679 11.4584 17.1667L11.4561 17.0799C9.10789 16.6851 7.20403 14.9808 6.52126 12.7437C5.04294 12.4341 3.99766 11.9119 3.38542 11.1771C2.54727 10.1713 2.11326 8.34838 2.08337 5.70837H6.25002V2.58337H18.75ZM12.5 4.66667L11.2959 7.52917L8.33337 7.85002L10.5542 9.93337L9.92502 13L12.5 11.425L15.075 13L14.4459 9.93752L16.6667 7.85418L13.7042 7.53337L12.5 4.66667ZM6.25002 7.79167H4.31042L4.33303 7.94167C4.46663 8.79675 4.67161 9.40344 4.91775 9.75413L4.98591 9.84338C5.1781 10.074 5.53938 10.2913 6.07463 10.4738L6.25002 10.5292V7.79167ZM20.6896 7.79167H18.75V10.5292L18.9254 10.4738C19.4607 10.2913 19.8219 10.074 20.0141 9.84338L20.0823 9.75413C20.3284 9.40344 20.5334 8.79675 20.667 7.94167L20.6896 7.79167Z" fill="url(#paint0_linear_63_612)"/>
<defs>
<linearGradient id="paint0_linear_63_612" x1="12.5" y1="2.58337" x2="12.5" y2="23.4167" gradientUnits="userSpaceOnUse">
<stop stop-color="#2DE2E2"/>
<stop offset="1" stop-color="#0922A0"/>
</linearGradient>
</defs>
</svg>
