<svg width="100" height="100" viewBox="0 0 100 100" fill="none" xmlns="http://www.w3.org/2000/svg">
<rect x="2.5" y="2.5" width="95" height="95" rx="2.5" stroke="#D7D7D7" stroke-width="5"/>
<path fill-rule="evenodd" clip-rule="evenodd" d="M47.075 9.14581C48.9609 8.43887 51.0391 8.43887 52.925 9.14581L82.0917 20.0833C83.6804 20.6789 85.0496 21.7452 86.016 23.1398C86.9825 24.5344 87.5002 26.1907 87.5 27.8875V50.2333C87.5001 57.1976 85.561 64.0243 81.8997 69.9485C78.2385 75.8727 72.9998 80.6604 66.7708 83.775L52.7958 90.7583C51.9278 91.1925 50.9706 91.4185 50 91.4185C49.0294 91.4185 48.0722 91.1925 47.2042 90.7583L33.2292 83.7708C27.0002 80.6562 21.7615 75.8686 18.1003 69.9444C14.439 64.0201 12.4999 57.1934 12.5 50.2291V27.8916C12.4989 26.1942 13.0163 24.5369 13.9828 23.1415C14.9493 21.7461 16.3189 20.6791 17.9083 20.0833L47.075 9.14581ZM54.1667 48.8833C55.7552 47.966 56.9968 46.5502 57.6987 44.8555C58.4007 43.1607 58.5238 41.2817 58.049 39.5098C57.5742 37.7379 56.5281 36.1722 55.0728 35.0555C53.6175 33.9387 51.8344 33.3334 50 33.3333C48.1656 33.3334 46.3825 33.9387 44.9272 35.0555C43.4719 36.1722 42.4258 37.7379 41.951 39.5098C41.4762 41.2817 41.5993 43.1607 42.3013 44.8555C43.0032 46.5502 44.2448 47.966 45.8333 48.8833V62.5C45.8333 63.605 46.2723 64.6648 47.0537 65.4462C47.8351 66.2276 48.8949 66.6666 50 66.6666C51.1051 66.6666 52.1649 66.2276 52.9463 65.4462C53.7277 64.6648 54.1667 63.605 54.1667 62.5V48.8833Z" fill="#D7D7D7"/>
</svg>
