<svg width="43" height="39" viewBox="0 0 43 39" fill="none" xmlns="http://www.w3.org/2000/svg">
<g filter="url(#filter0_d_2027_2442)">
<path d="M14.9375 28.4375H28.0625V21.875H25.875V22.9688C25.875 23.2588 25.7598 23.537 25.5546 23.7421C25.3495 23.9473 25.0713 24.0625 24.7812 24.0625C24.4912 24.0625 24.213 23.9473 24.0079 23.7421C23.8027 23.537 23.6875 23.2588 23.6875 22.9688V21.875H14.9375V28.4375Z" fill="white"/>
<path d="M17.125 4.375V5.12094C12.0281 6.92344 8.375 11.7863 8.375 17.5V20.1053L5.81562 21.385C5.27014 21.6573 4.81131 22.0763 4.49061 22.5948C4.16991 23.1133 4.00002 23.7109 4 24.3206V29.5312C4 30.4015 4.3457 31.2361 4.96106 31.8514C5.57641 32.4668 6.41101 32.8125 7.28125 32.8125H9.46875C10.4662 34.1403 12.0544 35 13.8438 35H29.1562C30.9456 35 32.5338 34.1403 33.5312 32.8125H35.7188C36.589 32.8125 37.4236 32.4668 38.0389 31.8514C38.6543 31.2361 39 30.4015 39 29.5312V24.3206C39 23.7109 38.8301 23.1133 38.5094 22.5948C38.1887 22.0763 37.7299 21.6573 37.1844 21.385L34.625 20.1053V17.5C34.626 14.785 33.785 12.1366 32.2179 9.9195C30.6508 7.70245 28.4347 6.02593 25.875 5.12094V4.375C25.875 3.21468 25.4141 2.10188 24.5936 1.28141C23.7731 0.460936 22.6603 0 21.5 0C20.3397 0 19.2269 0.460936 18.4064 1.28141C17.5859 2.10188 17.125 3.21468 17.125 4.375ZM21.5 2.1875C22.0802 2.1875 22.6366 2.41797 23.0468 2.8282C23.457 3.23844 23.6875 3.79484 23.6875 4.375V4.55656C22.2394 4.3118 20.7606 4.3118 19.3125 4.55656V4.375C19.3125 3.79484 19.543 3.23844 19.9532 2.8282C20.3634 2.41797 20.9198 2.1875 21.5 2.1875ZM21.5 8.75C23.6049 8.74957 25.6395 9.50795 27.2305 10.8861C28.8216 12.2642 29.8625 14.1697 30.1625 16.2531C30.1853 16.3965 30.1794 16.5431 30.1449 16.6842C30.1105 16.8253 30.0484 16.9581 29.9621 17.0749C29.8758 17.1917 29.7671 17.2902 29.6423 17.3645C29.5176 17.4389 29.3793 17.4876 29.2355 17.508C29.0917 17.5283 28.9453 17.5198 28.8048 17.483C28.6643 17.4461 28.5326 17.3817 28.4173 17.2934C28.302 17.205 28.2055 17.0947 28.1333 16.9687C28.0611 16.8426 28.0147 16.7035 27.9969 16.5594C27.774 14.9951 26.9942 13.5637 25.8006 12.5282C24.6071 11.4927 23.0801 10.9226 21.5 10.9226C19.9199 10.9226 18.3929 11.4927 17.1994 12.5282C16.0058 13.5637 15.226 14.9951 15.0031 16.5594C14.9853 16.7035 14.9389 16.8426 14.8667 16.9687C14.7945 17.0947 14.698 17.205 14.5827 17.2934C14.4674 17.3817 14.3357 17.4461 14.1952 17.483C14.0547 17.5198 13.9083 17.5283 13.7645 17.508C13.6207 17.4876 13.4824 17.4389 13.3577 17.3645C13.2329 17.2902 13.1242 17.1917 13.0379 17.0749C12.9516 16.9581 12.8895 16.8253 12.8551 16.6842C12.8206 16.5431 12.8147 16.3965 12.8375 16.2531C13.1375 14.1697 14.1784 12.2642 15.7695 10.8861C17.3605 9.50795 19.3951 8.74957 21.5 8.75ZM13.8438 19.6875H29.1562C29.4463 19.6875 29.7245 19.8027 29.9296 20.0079C30.1348 20.213 30.25 20.4912 30.25 20.7812V29.5312C30.25 29.8213 30.1348 30.0995 29.9296 30.3046C29.7245 30.5098 29.4463 30.625 29.1562 30.625H13.8438C13.5537 30.625 13.2755 30.5098 13.0704 30.3046C12.8652 30.0995 12.75 29.8213 12.75 29.5312V20.7812C12.75 20.4912 12.8652 20.213 13.0704 20.0079C13.2755 19.8027 13.5537 19.6875 13.8438 19.6875Z" fill="white"/>
</g>
<defs>
<filter id="filter0_d_2027_2442" x="0" y="0" width="43" height="43" filterUnits="userSpaceOnUse" color-interpolation-filters="sRGB">
<feFlood flood-opacity="0" result="BackgroundImageFix"/>
<feColorMatrix in="SourceAlpha" type="matrix" values="0 0 0 0 0 0 0 0 0 0 0 0 0 0 0 0 0 0 127 0" result="hardAlpha"/>
<feOffset dy="4"/>
<feGaussianBlur stdDeviation="2"/>
<feComposite in2="hardAlpha" operator="out"/>
<feColorMatrix type="matrix" values="0 0 0 0 0 0 0 0 0 0 0 0 0 0 0 0 0 0 0.25 0"/>
<feBlend mode="normal" in2="BackgroundImageFix" result="effect1_dropShadow_2027_2442"/>
<feBlend mode="normal" in="SourceGraphic" in2="effect1_dropShadow_2027_2442" result="shape"/>
</filter>
</defs>
</svg>
