<svg width="44" height="48" viewBox="0 0 44 48" fill="none" xmlns="http://www.w3.org/2000/svg">
<g filter="url(#filter0_d_594_2643)">
<rect width="44" height="44" rx="10" fill="#E6E2E2"/>
<path d="M15.9375 33.4375H29.0625V26.875H26.875V27.9688C26.875 28.2588 26.7598 28.537 26.5546 28.7421C26.3495 28.9473 26.0713 29.0625 25.7812 29.0625C25.4912 29.0625 25.213 28.9473 25.0079 28.7421C24.8027 28.537 24.6875 28.2588 24.6875 27.9688V26.875H15.9375V33.4375Z" fill="#A2A2A2"/>
<path d="M18.125 9.375V10.1209C13.0281 11.9234 9.375 16.7863 9.375 22.5V25.1053L6.81562 26.385C6.27014 26.6573 5.81131 27.0763 5.49061 27.5948C5.16991 28.1133 5.00002 28.7109 5 29.3206V34.5312C5 35.4015 5.3457 36.2361 5.96106 36.8514C6.57641 37.4668 7.41101 37.8125 8.28125 37.8125H10.4688C11.4662 39.1403 13.0544 40 14.8438 40H30.1562C31.9456 40 33.5338 39.1403 34.5312 37.8125H36.7188C37.589 37.8125 38.4236 37.4668 39.0389 36.8514C39.6543 36.2361 40 35.4015 40 34.5312V29.3206C40 28.7109 39.8301 28.1133 39.5094 27.5948C39.1887 27.0763 38.7299 26.6573 38.1844 26.385L35.625 25.1053V22.5C35.626 19.785 34.785 17.1366 33.2179 14.9195C31.6508 12.7024 29.4347 11.0259 26.875 10.1209V9.375C26.875 8.21468 26.4141 7.10188 25.5936 6.28141C24.7731 5.46094 23.6603 5 22.5 5C21.3397 5 20.2269 5.46094 19.4064 6.28141C18.5859 7.10188 18.125 8.21468 18.125 9.375ZM22.5 7.1875C23.0802 7.1875 23.6366 7.41797 24.0468 7.8282C24.457 8.23844 24.6875 8.79484 24.6875 9.375V9.55656C23.2394 9.3118 21.7606 9.3118 20.3125 9.55656V9.375C20.3125 8.79484 20.543 8.23844 20.9532 7.8282C21.3634 7.41797 21.9198 7.1875 22.5 7.1875ZM22.5 13.75C24.6049 13.7496 26.6395 14.5079 28.2305 15.8861C29.8216 17.2642 30.8625 19.1697 31.1625 21.2531C31.1853 21.3965 31.1794 21.5431 31.1449 21.6842C31.1105 21.8253 31.0484 21.9581 30.9621 22.0749C30.8758 22.1917 30.7671 22.2902 30.6423 22.3645C30.5176 22.4389 30.3793 22.4876 30.2355 22.508C30.0917 22.5283 29.9453 22.5198 29.8048 22.483C29.6643 22.4461 29.5326 22.3817 29.4173 22.2934C29.302 22.205 29.2055 22.0947 29.1333 21.9687C29.0611 21.8426 29.0147 21.7035 28.9969 21.5594C28.774 19.9951 27.9942 18.5637 26.8006 17.5282C25.6071 16.4927 24.0801 15.9226 22.5 15.9226C20.9199 15.9226 19.3929 16.4927 18.1994 17.5282C17.0058 18.5637 16.226 19.9951 16.0031 21.5594C15.9853 21.7035 15.9389 21.8426 15.8667 21.9687C15.7945 22.0947 15.698 22.205 15.5827 22.2934C15.4674 22.3817 15.3357 22.4461 15.1952 22.483C15.0547 22.5198 14.9083 22.5283 14.7645 22.508C14.6207 22.4876 14.4824 22.4389 14.3577 22.3645C14.2329 22.2902 14.1242 22.1917 14.0379 22.0749C13.9516 21.9581 13.8895 21.8253 13.8551 21.6842C13.8206 21.5431 13.8147 21.3965 13.8375 21.2531C14.1375 19.1697 15.1784 17.2642 16.7695 15.8861C18.3605 14.5079 20.3951 13.7496 22.5 13.75ZM14.8438 24.6875H30.1562C30.4463 24.6875 30.7245 24.8027 30.9296 25.0079C31.1348 25.213 31.25 25.4912 31.25 25.7812V34.5312C31.25 34.8213 31.1348 35.0995 30.9296 35.3046C30.7245 35.5098 30.4463 35.625 30.1562 35.625H14.8438C14.5537 35.625 14.2755 35.5098 14.0704 35.3046C13.8652 35.0995 13.75 34.8213 13.75 34.5312V25.7812C13.75 25.4912 13.8652 25.213 14.0704 25.0079C14.2755 24.8027 14.5537 24.6875 14.8438 24.6875Z" fill="#A2A2A2"/>
</g>
<defs>
<filter id="filter0_d_594_2643" x="0" y="0" width="44" height="48" filterUnits="userSpaceOnUse" color-interpolation-filters="sRGB">
<feFlood flood-opacity="0" result="BackgroundImageFix"/>
<feColorMatrix in="SourceAlpha" type="matrix" values="0 0 0 0 0 0 0 0 0 0 0 0 0 0 0 0 0 0 127 0" result="hardAlpha"/>
<feOffset dy="4"/>
<feComposite in2="hardAlpha" operator="out"/>
<feColorMatrix type="matrix" values="0 0 0 0 0.171093 0 0 0 0 0.171093 0 0 0 0 0.171093 0 0 0 1 0"/>
<feBlend mode="normal" in2="BackgroundImageFix" result="effect1_dropShadow_594_2643"/>
<feBlend mode="normal" in="SourceGraphic" in2="effect1_dropShadow_594_2643" result="shape"/>
</filter>
</defs>
</svg>
