<svg width="31" height="30" viewBox="0 0 31 30" fill="none" xmlns="http://www.w3.org/2000/svg">
<path d="M17.0468 1.48572C18.4647 0.76975 20.0989 0.318581 21.6854 0.430054C22.4167 0.481127 23.1333 0.653462 23.8173 0.971069C25.7708 1.88289 26.8888 4.12735 26.5546 6.23669L26.5175 6.43982C26.3879 7.07156 26.1355 7.67157 25.7968 8.21912L25.7635 8.2738L25.8182 8.30603C25.8306 8.31344 25.8394 8.31894 25.8456 8.32361C26.4181 8.75452 26.81 9.19261 27.0292 9.69763C27.248 10.202 27.2978 10.78 27.1718 11.4965C27.1337 11.7111 27.0918 11.8857 27.0858 12.0912L27.0936 12.3109L27.1219 12.5023C27.2164 12.9627 27.4864 13.2626 27.7401 13.6556C28.0686 14.1658 28.353 14.7039 28.5858 15.265C29.0056 16.2718 29.2622 17.3451 29.3446 18.434L29.369 18.9017C29.3713 19.0039 29.371 19.1066 29.371 19.2074C29.3708 24.9375 24.6655 29.5833 18.8612 29.5834C13.0568 29.5834 8.35065 24.9376 8.35046 19.2074C8.35046 13.477 13.0544 8.83044 18.8612 8.83044C19.2006 8.83045 19.538 8.85117 19.8759 8.88611C20.1034 8.91024 20.2872 8.93681 20.4589 8.91736C20.5915 8.90232 20.7162 8.86064 20.8524 8.77478L20.993 8.67419C21.4136 8.33633 21.809 7.98144 22.2596 7.69568C22.7945 7.358 23.3506 7.3265 23.9745 7.46912C24.1728 7.51524 24.3699 7.57831 24.5634 7.64587L24.6083 7.6615L24.6356 7.62244C25.7281 6.04685 25.5535 3.83368 24.0653 2.53845C22.7703 1.41264 21.1886 1.33744 19.6669 1.76306C18.1463 2.18837 16.6772 3.11479 15.5917 4.00623C14.8332 4.62933 13.8132 5.31996 12.7303 5.82654C11.6465 6.33357 10.5064 6.65353 9.50476 6.54529C9.23286 6.5156 8.65375 6.47157 8.18542 6.3197C7.95069 6.24357 7.75326 6.14259 7.63562 6.01111C7.57781 5.94645 7.53987 5.87514 7.52527 5.79529C7.51069 5.71517 7.51874 5.62161 7.55945 5.51306C7.61983 5.3528 7.70529 5.26478 7.80261 5.21814C7.90214 5.17049 8.0225 5.16168 8.15808 5.17615C8.29385 5.19067 8.43817 5.22788 8.58386 5.26501C8.65547 5.28327 8.72786 5.30151 8.79871 5.31677L9.00476 5.34998C9.33603 5.37969 9.74027 5.45091 10.0878 5.41736L10.0868 5.41638C10.6048 5.36908 11.0453 5.28017 11.5331 5.07556C12.5607 4.6444 13.4517 3.99126 14.328 3.32556C15.2062 2.65844 16.0687 1.97943 17.0468 1.48572Z" fill="url(#paint0_linear_1692_882)" stroke="url(#paint1_linear_1692_882)" stroke-width="0.125"/>
<path d="M21.1696 12.1312C20.5274 12.3047 19.8383 12.2953 19.1844 12.4523C17.9083 12.7608 16.7139 13.3412 15.6829 14.1539C13.5688 15.825 12.2774 18.4476 12.2891 21.1429C12.2891 21.2695 12.2915 21.3961 12.2985 21.5226C12.3196 21.9609 12.3407 22.6172 11.9657 22.9359C10.8805 23.8594 9.97114 20.9203 9.87739 20.3531C9.68286 19.1601 9.81646 17.8898 10.154 16.7344C10.5152 15.4996 11.1397 14.3578 11.9844 13.3875C13.7024 11.4094 16.243 10.2679 18.861 10.2679C19.5454 10.2679 20.2766 10.3195 20.9399 10.5047C21.4391 10.6453 22.0555 10.8164 22.2594 11.3601C22.5266 12.0726 21.6172 12.0117 21.1696 12.1312Z" fill="white"/>
<path d="M5.83677 6.11018C6.32088 6.11018 6.71333 5.71773 6.71333 5.23362C6.71333 4.74951 6.32088 4.35706 5.83677 4.35706C5.35266 4.35706 4.96021 4.74951 4.96021 5.23362C4.96021 5.71773 5.35266 6.11018 5.83677 6.11018Z" fill="#ED6C30"/>
<path d="M5.18047 6.90705C4.81016 7.30314 4.37891 8.28283 4.42813 8.85236C4.43985 9.00002 4.47969 9.14299 4.54766 9.27658C4.71172 9.59533 5.19688 9.80158 5.5086 9.59767C5.75235 9.44064 5.88828 9.17814 5.95391 8.89924C6.05235 8.48674 6.06875 5.96017 5.18047 6.90705ZM8.69375 8.49611C8.75938 8.23127 8.68438 7.96408 8.55547 7.73205C8.36094 7.38283 6.7625 5.63674 6.75313 6.85314C6.75313 7.35939 7.07891 8.31096 7.475 8.66955C7.57813 8.7633 7.69531 8.83596 7.82656 8.88517C8.14063 9.00002 8.60703 8.83127 8.69375 8.49611ZM4.1211 5.84767C3.61953 5.87346 2.70078 6.2508 2.36797 6.65861C2.28125 6.76642 2.21328 6.88596 2.17344 7.01955C2.07734 7.33596 2.26953 7.7883 2.60703 7.85158C2.87188 7.90314 3.12969 7.81408 3.35234 7.67346C3.6875 7.46252 5.32344 5.78674 4.1211 5.84767ZM8.75 2.99299C8.91875 2.76564 9.03594 2.49611 9.00313 2.20549C8.96094 1.83752 8.48985 1.59377 8.14297 1.67345C7.99531 1.70627 7.85938 1.76955 7.73985 1.85158C7.2711 2.17736 6.79297 3.13595 6.725 3.67267C6.56094 4.96174 8.49219 3.33517 8.75 2.99299ZM4.08594 4.91486C4.75156 4.73205 4.33438 4.26799 3.98516 4.00314C3.56328 3.68439 2.99375 3.3258 2.45703 3.25783C2.11953 3.21564 1.75156 3.40783 1.61797 3.71955C1.45391 4.09924 1.69531 4.46721 2.01406 4.67346C2.49453 4.98283 3.56328 5.05783 4.08594 4.91486ZM5.64453 1.66642C5.55781 1.4133 5.41016 1.17892 5.16875 1.05236C4.86172 0.890642 4.42344 1.12736 4.29922 1.43674C4.24766 1.56799 4.22422 1.70392 4.22422 1.84455C4.22891 2.37892 4.71641 3.25783 5.0961 3.59767C6.00781 4.40392 5.77344 2.04611 5.64453 1.66642Z" fill="#ED6C30"/>
<defs>
<linearGradient id="paint0_linear_1692_882" x1="18.4448" y1="0.350952" x2="18.4448" y2="29.6461" gradientUnits="userSpaceOnUse">
<stop stop-color="#2DE2E2"/>
<stop offset="1" stop-color="#0922A0"/>
</linearGradient>
<linearGradient id="paint1_linear_1692_882" x1="18.4448" y1="0.350952" x2="18.4448" y2="29.6461" gradientUnits="userSpaceOnUse">
<stop stop-color="#2DE2E2"/>
<stop offset="1" stop-color="#0922A0"/>
</linearGradient>
</defs>
</svg>
