<svg width="100" height="104" viewBox="0 0 100 104" fill="none" xmlns="http://www.w3.org/2000/svg">
<g filter="url(#filter0_d_63_596)">
<rect width="100" height="100" rx="50" fill="url(#paint0_linear_63_596)"/>
<g filter="url(#filter1_i_63_596)">
<path d="M64.6875 69.9999L58.5938 63.9583L55.4688 67.0833C55.0868 67.4652 54.6007 67.6562 54.0104 67.6562C53.4202 67.6562 52.9341 67.4652 52.5521 67.0833C51.7535 66.2846 51.3542 65.2951 51.3542 64.1145C51.3542 62.9339 51.7535 61.9444 52.5521 61.1458L61.3542 52.3437C62.1528 51.5451 63.1424 51.1458 64.3229 51.1458C65.5035 51.1458 66.4931 51.5451 67.2917 52.3437C67.6736 52.7256 67.8646 53.2117 67.8646 53.802C67.8646 54.3923 67.6736 54.8784 67.2917 55.2603L64.1667 58.3853L70.2084 64.4791C70.625 64.8958 70.8334 65.3819 70.8334 65.9374C70.8334 66.493 70.625 66.9791 70.2084 67.3958L67.6042 69.9999C67.1875 70.4166 66.7014 70.6249 66.1459 70.6249C65.5903 70.6249 65.1042 70.4166 64.6875 69.9999ZM70.2084 37.9166L47.1875 60.9374L47.4479 61.1458C48.2465 61.9444 48.6459 62.9339 48.6459 64.1145C48.6459 65.2951 48.2465 66.2846 47.4479 67.0833C47.066 67.4652 46.5799 67.6562 45.9896 67.6562C45.3993 67.6562 44.9132 67.4652 44.5313 67.0833L41.4063 63.9583L35.3125 69.9999C34.8959 70.4166 34.4097 70.6249 33.8542 70.6249C33.2986 70.6249 32.8125 70.4166 32.3959 69.9999L29.7917 67.3958C29.375 66.9791 29.1667 66.493 29.1667 65.9374C29.1667 65.3819 29.375 64.8958 29.7917 64.4791L35.8334 58.3853L32.7084 55.2603C32.3264 54.8784 32.1354 54.3923 32.1354 53.802C32.1354 53.2117 32.3264 52.7256 32.7084 52.3437C33.507 51.5451 34.4965 51.1458 35.6771 51.1458C36.8577 51.1458 37.8472 51.5451 38.6459 52.3437L38.8542 52.6041L61.3021 30.1562C61.684 29.7742 62.1271 29.4791 62.6313 29.2708C63.1354 29.0624 63.6646 28.9583 64.2188 28.9583H68.75C69.3403 28.9583 69.8354 29.1583 70.2354 29.5583C70.6354 29.9583 70.8347 30.4527 70.8334 31.0416V36.4062C70.8334 36.6839 70.7813 36.9534 70.6771 37.2145C70.5729 37.4756 70.4167 37.7096 70.2084 37.9166ZM37.9688 46.0937L30.3646 38.4895C29.9827 38.1076 29.6875 37.6652 29.4792 37.1624C29.2709 36.6596 29.1667 36.1298 29.1667 35.5728V31.0416C29.1667 30.4513 29.3667 29.9569 29.7667 29.5583C30.1667 29.1596 30.6611 28.9596 31.25 28.9583H35.7813C36.3368 28.9583 36.8667 29.0624 37.3709 29.2708C37.875 29.4791 38.3174 29.7742 38.6979 30.1562L46.3021 37.7603C46.7188 38.177 46.9271 38.6721 46.9271 39.2458C46.9271 39.8194 46.7188 40.3138 46.3021 40.7291L40.9375 46.0937C40.5209 46.5103 40.0264 46.7187 39.4542 46.7187C38.882 46.7187 38.3868 46.5103 37.9688 46.0937Z" fill="#7C7C7C"/>
</g>
</g>
<defs>
<filter id="filter0_d_63_596" x="0" y="0" width="100" height="104" filterUnits="userSpaceOnUse" color-interpolation-filters="sRGB">
<feFlood flood-opacity="0" result="BackgroundImageFix"/>
<feColorMatrix in="SourceAlpha" type="matrix" values="0 0 0 0 0 0 0 0 0 0 0 0 0 0 0 0 0 0 127 0" result="hardAlpha"/>
<feOffset dy="4"/>
<feComposite in2="hardAlpha" operator="out"/>
<feColorMatrix type="matrix" values="0 0 0 0 0.0518629 0 0 0 0 0.0514639 0 0 0 0 0.0514639 0 0 0 0.75 0"/>
<feBlend mode="normal" in2="BackgroundImageFix" result="effect1_dropShadow_63_596"/>
<feBlend mode="normal" in="SourceGraphic" in2="effect1_dropShadow_63_596" result="shape"/>
</filter>
<filter id="filter1_i_63_596" x="29.1667" y="28.9583" width="41.6667" height="45.6667" filterUnits="userSpaceOnUse" color-interpolation-filters="sRGB">
<feFlood flood-opacity="0" result="BackgroundImageFix"/>
<feBlend mode="normal" in="SourceGraphic" in2="BackgroundImageFix" result="shape"/>
<feColorMatrix in="SourceAlpha" type="matrix" values="0 0 0 0 0 0 0 0 0 0 0 0 0 0 0 0 0 0 127 0" result="hardAlpha"/>
<feOffset dy="4"/>
<feGaussianBlur stdDeviation="2"/>
<feComposite in2="hardAlpha" operator="arithmetic" k2="-1" k3="1"/>
<feColorMatrix type="matrix" values="0 0 0 0 0 0 0 0 0 0 0 0 0 0 0 0 0 0 0.25 0"/>
<feBlend mode="normal" in2="shape" result="effect1_innerShadow_63_596"/>
</filter>
<linearGradient id="paint0_linear_63_596" x1="50" y1="0" x2="50" y2="100" gradientUnits="userSpaceOnUse">
<stop stop-color="#DFDFDF"/>
<stop offset="1" stop-color="#ACACAC"/>
</linearGradient>
</defs>
</svg>
