<svg width="50" height="51" viewBox="0 0 50 51" fill="none" xmlns="http://www.w3.org/2000/svg">
<path d="M45.3124 30.9688H39.8436V22.2754C41.1804 23.525 42.7355 24.5181 44.4315 25.2051C45.0078 25.4382 45.6531 25.4328 46.2254 25.1901C46.7977 24.9475 47.2502 24.4874 47.4833 23.9111C47.7164 23.3349 47.711 22.6896 47.4683 22.1173C47.2257 21.545 46.7656 21.0925 46.1893 20.8594C44.3102 20.1042 42.701 18.8026 41.5697 17.1229C40.4384 15.4432 39.8371 13.4626 39.8436 11.4375C39.8436 10.8159 39.5967 10.2198 39.1572 9.78022C38.7176 9.34068 38.1215 9.09375 37.4999 9.09375C36.8783 9.09375 36.2821 9.34068 35.8426 9.78022C35.4031 10.2198 35.1561 10.8159 35.1561 11.4375C35.1561 14.1311 34.0861 16.7144 32.1814 18.6191C30.2768 20.5237 27.6935 21.5938 24.9999 21.5938C22.3063 21.5938 19.723 20.5237 17.8183 18.6191C15.9137 16.7144 14.8436 14.1311 14.8436 11.4375C14.8436 10.8159 14.5967 10.2198 14.1572 9.78022C13.7176 9.34068 13.1215 9.09375 12.4999 9.09375C11.8783 9.09375 11.2821 9.34068 10.8426 9.78022C10.4031 10.2198 10.1561 10.8159 10.1561 11.4375C10.1617 13.4622 9.55979 15.442 8.42818 17.121C7.29657 18.8 5.68731 20.1009 3.80848 20.8555C3.2322 21.0886 2.77213 21.541 2.52946 22.1134C2.2868 22.6857 2.28143 23.331 2.51453 23.9072C2.74763 24.4835 3.20011 24.9436 3.77243 25.1862C4.34474 25.4289 4.99001 25.4343 5.56629 25.2012C7.26228 24.5142 8.81745 23.5211 10.1542 22.2715V30.9688H4.68738C4.06578 30.9688 3.46964 31.2157 3.0301 31.6552C2.59056 32.0948 2.34363 32.6909 2.34363 33.3125C2.34363 33.9341 2.59056 34.5302 3.0301 34.9698C3.46964 35.4093 4.06578 35.6562 4.68738 35.6562H10.1561V39.5625C10.1561 40.1841 10.4031 40.7802 10.8426 41.2198C11.2821 41.6593 11.8783 41.9062 12.4999 41.9062C13.1215 41.9062 13.7176 41.6593 14.1572 41.2198C14.5967 40.7802 14.8436 40.1841 14.8436 39.5625V35.6562H35.1561V39.5625C35.1561 40.1841 35.4031 40.7802 35.8426 41.2198C36.2821 41.6593 36.8783 41.9062 37.4999 41.9062C38.1215 41.9062 38.7176 41.6593 39.1572 41.2198C39.5967 40.7802 39.8436 40.1841 39.8436 39.5625V35.6562H45.3124C45.934 35.6562 46.5301 35.4093 46.9697 34.9698C47.4092 34.5302 47.6561 33.9341 47.6561 33.3125C47.6561 32.6909 47.4092 32.0948 46.9697 31.6552C46.5301 31.2157 45.934 30.9688 45.3124 30.9688ZM27.3436 26.0957V30.9688H22.6561V26.0957C24.2088 26.343 25.7909 26.343 27.3436 26.0957ZM14.8436 22.2539C15.7836 23.1364 16.834 23.8934 17.9686 24.5059V30.9688H14.8436V22.2539ZM32.0311 30.9688V24.5059C33.1657 23.8934 34.2161 23.1364 35.1561 22.2539V30.9688H32.0311Z" fill="url(#paint0_linear_50_482)"/>
<defs>
<linearGradient id="paint0_linear_50_482" x1="24.9998" y1="9.09375" x2="24.9998" y2="41.9062" gradientUnits="userSpaceOnUse">
<stop stop-color="#FE9365"/>
<stop offset="1" stop-color="#C50000"/>
</linearGradient>
</defs>
</svg>
