<svg width="38" height="38" viewBox="0 0 38 38" fill="none" xmlns="http://www.w3.org/2000/svg">
<path d="M37.75 33.5833C37.75 34.6884 37.311 35.7482 36.5296 36.5296C35.7482 37.311 34.6884 37.75 33.5833 37.75H4.41667C3.3116 37.75 2.25179 37.311 1.47039 36.5296C0.688987 35.7482 0.25 34.6884 0.25 33.5833V4.41667C0.25 3.3116 0.688987 2.25179 1.47039 1.47039C2.25179 0.688987 3.3116 0.25 4.41667 0.25H33.5833C34.6884 0.25 35.7482 0.688987 36.5296 1.47039C37.311 2.25179 37.75 3.3116 37.75 4.41667V33.5833ZM21.0833 31.5V13.7917L28.375 21.0833L31.3333 18.125L19 5.79167L6.66667 18.125L9.625 21.0833L16.9167 13.7917V31.5H21.0833Z" fill="url(#paint0_linear_558_2734)"/>
<defs>
<linearGradient id="paint0_linear_558_2734" x1="19" y1="0.25" x2="19" y2="37.75" gradientUnits="userSpaceOnUse">
<stop stop-color="#2DE2E2"/>
<stop offset="1" stop-color="#0922A0"/>
</linearGradient>
</defs>
</svg>
