<svg width="20" height="20" viewBox="0 0 20 20" fill="none" xmlns="http://www.w3.org/2000/svg">
<path fill-rule="evenodd" clip-rule="evenodd" d="M3.125 2.5C2.95924 2.5 2.80027 2.56585 2.68306 2.68306C2.56585 2.80027 2.5 2.95924 2.5 3.125V16.875C2.5 17.0408 2.56585 17.1997 2.68306 17.3169C2.80027 17.4342 2.95924 17.5 3.125 17.5H16.875C17.0408 17.5 17.1997 17.4342 17.3169 17.3169C17.4342 17.1997 17.5 17.0408 17.5 16.875V3.125C17.5 2.95924 17.4342 2.80027 17.3169 2.68306C17.1997 2.56585 17.0408 2.5 16.875 2.5H3.125ZM9.1925 12.9425L14.8175 7.3175L13.9338 6.4325L8.75 11.6163L6.0675 8.9325L5.1825 9.8175L8.3075 12.9425C8.36556 13.0007 8.43453 13.0469 8.51046 13.0784C8.58639 13.1099 8.66779 13.1261 8.75 13.1261C8.83221 13.1261 8.91361 13.1099 8.98954 13.0784C9.06547 13.0469 9.13444 13.0007 9.1925 12.9425Z" fill="white"/>
</svg>
