<svg width="24" height="24" viewBox="0 0 24 24" fill="none" xmlns="http://www.w3.org/2000/svg">
<g clip-path="url(#clip0_63_604)">
<path d="M6.83622 6.90183L4.18497 5.20308C4.13152 5.17032 4.08619 5.12587 4.05238 5.07308C4.01857 5.02029 3.99716 4.96052 3.98977 4.89827C3.98237 4.83602 3.98917 4.7729 4.00967 4.71366C4.03016 4.65441 4.06381 4.60058 4.10809 4.5562L5.10372 3.56058C5.29497 3.36933 5.61747 3.41058 5.75434 3.64495L7.41184 6.33933C7.62934 6.71058 7.20372 7.12683 6.83622 6.90183ZM4.51872 15.0731L1.43997 15.135C1.37737 15.1363 1.31589 15.1518 1.26015 15.1804C1.2044 15.2089 1.15585 15.2497 1.11814 15.2997C1.08042 15.3496 1.05453 15.4075 1.0424 15.469C1.03027 15.5304 1.03221 15.5938 1.0481 15.6543L1.40622 17.0156C1.4756 17.2781 1.77372 17.4037 2.00997 17.2725L4.73059 15.8493C5.10559 15.6375 4.94997 15.0637 4.51872 15.0731ZM11.67 20.3025L10.995 23.3006C10.9331 23.5612 11.13 23.8125 11.3981 23.8125H12.8062C13.0781 23.8125 13.275 23.5556 13.2075 23.2931L12.4743 20.295C12.3656 19.8768 11.7712 19.8825 11.67 20.3025ZM17.1637 6.90183L19.815 5.20308C20.0437 5.06245 20.0812 4.74558 19.8918 4.5562L18.8962 3.56058C18.8513 3.51588 18.7968 3.48206 18.7368 3.4617C18.6769 3.44135 18.613 3.435 18.5502 3.44314C18.4874 3.45129 18.4273 3.47371 18.3745 3.5087C18.3217 3.54368 18.2776 3.59029 18.2456 3.64495L16.5881 6.33933C16.3706 6.71058 16.7962 7.12683 17.1637 6.90183ZM19.4812 15.0731L22.56 15.135C22.6226 15.1363 22.6841 15.1518 22.7398 15.1804C22.7955 15.2089 22.8441 15.2497 22.8818 15.2997C22.9195 15.3496 22.9454 15.4075 22.9575 15.469C22.9697 15.5304 22.9677 15.5938 22.9518 15.6543L22.5937 17.0156C22.5775 17.0768 22.5475 17.1334 22.5061 17.1813C22.4647 17.2291 22.4129 17.2668 22.3546 17.2916C22.2964 17.3164 22.2333 17.3275 22.1701 17.3242C22.1069 17.3209 22.0453 17.3032 21.99 17.2725L19.2693 15.8493C18.8943 15.6375 19.05 15.0637 19.4812 15.0731Z" fill="#FFC107"/>
<path d="M12.7593 1.35563L15.2831 7.11188C15.378 7.32847 15.5294 7.51562 15.7213 7.65381C15.9133 7.79199 16.1388 7.87615 16.3743 7.8975L22.5224 8.44875C23.2181 8.55 23.4956 9.40313 22.9912 9.89438L18.3599 13.785C17.9849 14.1 17.8143 14.595 17.9174 15.0731L19.2637 21.375C19.3818 22.0669 18.6562 22.5956 18.0337 22.2675L12.6674 19.125C12.4651 19.0062 12.2346 18.9435 11.9999 18.9435C11.7653 18.9435 11.5348 19.0062 11.3324 19.125L5.96619 22.2656C5.34557 22.5919 4.61807 22.065 4.73619 21.3731L6.08244 15.0713C6.18369 14.5931 6.01494 14.0981 5.63994 13.7831L1.00682 9.89625C0.504316 9.40688 0.781816 8.55188 1.47557 8.45063L7.62369 7.89938C7.85923 7.87802 8.08473 7.79387 8.27667 7.65568C8.46861 7.5175 8.61996 7.33035 8.71494 7.11375L11.2387 1.3575C11.5518 0.7275 12.4481 0.7275 12.7593 1.35563Z" fill="#FDD835"/>
<path d="M12.5756 7.45684L12.1481 3.21559C12.1312 2.97934 12.0825 2.57434 12.4612 2.57434C12.7612 2.57434 12.9243 3.19872 12.9243 3.19872L14.2068 6.60372C14.6906 7.89934 14.4918 8.34372 14.025 8.60622C13.4887 8.90622 12.6975 8.67184 12.5756 7.45684Z" fill="#FFFF8D"/>
<path d="M17.8651 13.4081L21.5438 10.5375C21.7257 10.3856 22.0538 10.1438 21.7913 9.86813C21.5832 9.65063 21.0207 9.96376 21.0207 9.96376L17.8013 11.2219C16.8413 11.5538 16.2038 12.045 16.1476 12.6638C16.0744 13.4888 16.8151 14.1244 17.8651 13.4081Z" fill="#F4B400"/>
</g>
<defs>
<clipPath id="clip0_63_604">
<rect width="24" height="24" fill="white"/>
</clipPath>
</defs>
</svg>
