<svg width="30" height="30" viewBox="0 0 30 30" fill="none" xmlns="http://www.w3.org/2000/svg">
<g clip-path="url(#clip0_1630_1184)">
<path d="M12.5017 23.889H24.1687C25.3473 23.8891 26.4779 24.3573 27.3113 25.1908C28.1447 26.0242 28.613 27.1547 28.613 28.3333V29.4447H8.05737V28.3333C8.05737 27.1546 8.52564 26.0243 9.35913 25.1908C10.1926 24.3573 11.323 23.889 12.5017 23.889Z" fill="#FA743E" stroke="#FA743E" stroke-width="1.11111"/>
<path d="M21.5883 1.88501C19.9049 1.34084 15.9449 1.48917 14.9549 2.77584C12.3808 2.82501 9.36077 5.15167 8.96494 8.22167C8.57327 11.2592 9.44661 12.67 9.75744 14.9542C10.1091 17.5425 11.5641 18.37 12.7274 18.7167C14.4008 20.9283 16.1799 20.8333 19.1666 20.8333C24.9999 20.8333 27.7783 16.93 28.0241 10.3008C28.1724 6.29084 25.8199 3.25417 21.5883 1.88501Z" fill="#963B22"/>
<path d="M15.8334 19.1667V24.1667C15.8334 24.495 15.898 24.8201 16.0237 25.1234C16.1493 25.4267 16.3335 25.7023 16.5656 25.9344C16.7978 26.1666 17.0734 26.3507 17.3767 26.4764C17.68 26.602 18.0051 26.6667 18.3334 26.6667C18.6617 26.6667 18.9868 26.602 19.2901 26.4764C19.5934 26.3507 19.869 26.1666 20.1011 25.9344C20.3333 25.7023 20.5174 25.4267 20.6431 25.1234C20.7687 24.8201 20.8334 24.495 20.8334 24.1667V19.1667H15.8334Z" fill="#D4AB88"/>
<path d="M15.4325 21.6625C16.3142 22.6683 17.14 22.9208 18.33 22.9208C19.5183 22.9208 20.3517 22.6675 21.2342 21.6625V18.7333H15.4333V21.6625H15.4325Z" fill="#CC9B7A"/>
<path d="M24.9242 10.5842C24.36 9.8025 23.6367 9.17333 22.0525 8.95083C22.6467 9.22333 23.2158 10.1633 23.29 10.6833C23.3642 11.2033 23.4383 11.6242 22.9683 11.1042C21.0842 9.02167 19.0325 9.84167 16.9992 8.57C15.5792 7.68167 15.1467 6.69833 15.1467 6.69833C15.1467 6.69833 14.9733 8.01 12.82 9.34667C12.1958 9.73417 11.4508 10.5967 11.0375 11.8717C10.7408 12.7875 10.8333 13.6042 10.8333 15C10.8333 19.0742 14.1908 22.5 18.3333 22.5C22.4758 22.5 25.8333 19.0442 25.8333 15C25.8333 12.4658 25.5675 11.4758 24.9242 10.5842Z" fill="#D4AB88"/>
<path d="M18.335 19.835C16.04 19.835 15.335 19.2475 15.2175 19.1283C15.1655 19.079 15.1238 19.0199 15.0946 18.9544C15.0655 18.8889 15.0495 18.8183 15.0477 18.7466C15.0439 18.6019 15.0978 18.4617 15.1975 18.3567C15.2972 18.2517 15.4345 18.1906 15.5792 18.1869C15.7239 18.1831 15.8642 18.237 15.9692 18.3367C16.0125 18.3675 16.57 18.7425 18.335 18.7425C20.1683 18.7425 20.6983 18.3383 20.7033 18.3342C20.7538 18.2845 20.8136 18.2453 20.8794 18.219C20.9452 18.1927 21.0155 18.1797 21.0864 18.1809C21.1572 18.182 21.2271 18.1973 21.2919 18.2258C21.3568 18.2542 21.4153 18.2953 21.4642 18.3467C21.5649 18.4526 21.6201 18.5937 21.6179 18.7399C21.6158 18.886 21.5564 19.0255 21.4525 19.1283C21.335 19.2475 20.63 19.835 18.335 19.835Z" fill="#C1694F"/>
<path d="M15 14.1667C14.7789 14.1667 14.567 14.0789 14.4107 13.9226C14.2544 13.7663 14.1666 13.5543 14.1666 13.3333V12.5C14.1666 12.279 14.2544 12.067 14.4107 11.9107C14.567 11.7545 14.7789 11.6667 15 11.6667C15.221 11.6667 15.4329 11.7545 15.5892 11.9107C15.7455 12.067 15.8333 12.279 15.8333 12.5V13.3333C15.8333 13.5543 15.7455 13.7663 15.5892 13.9226C15.4329 14.0789 15.221 14.1667 15 14.1667ZM21.6666 14.1667C21.4456 14.1667 21.2336 14.0789 21.0774 13.9226C20.9211 13.7663 20.8333 13.5543 20.8333 13.3333V12.5C20.8333 12.279 20.9211 12.067 21.0774 11.9107C21.2336 11.7545 21.4456 11.6667 21.6666 11.6667C21.8876 11.6667 22.0996 11.7545 22.2559 11.9107C22.4122 12.067 22.5 12.279 22.5 12.5V13.3333C22.5 13.5543 22.4122 13.7663 22.2559 13.9226C22.0996 14.0789 21.8876 14.1667 21.6666 14.1667Z" fill="#662113"/>
<path d="M19.1667 17.0833H17.5C17.3895 17.0833 17.2836 17.0394 17.2054 16.9613C17.1273 16.8832 17.0834 16.7772 17.0834 16.6667C17.0834 16.5562 17.1273 16.4502 17.2054 16.372C17.2836 16.2939 17.3895 16.25 17.5 16.25H19.1667C19.2772 16.25 19.3832 16.2939 19.4613 16.372C19.5395 16.4502 19.5834 16.5562 19.5834 16.6667C19.5834 16.7772 19.5395 16.8832 19.4613 16.9613C19.3832 17.0394 19.2772 17.0833 19.1667 17.0833Z" fill="#C1694F"/>
<path d="M6.66833 23.7983V30H7.50167L7.75417 23.7983H6.66833Z" fill="#DD551F"/>
<path d="M3.61254 23.3775L2.50171 30H6.66838L7.26921 23.6767L3.61254 23.3775Z" fill="#FA743E"/>
<path d="M5.65745 18.5483C6.42662 17.7792 8.62245 16.0783 9.16995 15.5175C9.71828 14.9575 10.4449 15.5983 10.0599 16.2825C9.67495 16.9667 7.45245 19.4883 7.45245 19.4883C7.45245 19.4883 8.77745 19.8733 9.07662 20.215C9.37578 20.5567 9.93162 22.78 9.41828 23.1217C8.90495 23.4633 8.13578 23.2075 8.13578 23.2075C8.13578 23.2075 7.32495 25.2167 5.22995 25.0883C4.35995 25.035 3.47745 24.2758 3.56245 22.9933C3.64745 21.7108 4.31578 20.5192 4.54578 19.83C4.80245 19.0608 5.65745 18.5483 5.65745 18.5483Z" fill="#D4AB88"/>
<path d="M5.08588 17.2542C5.04468 17.2544 5.00368 17.2485 4.96421 17.2367C2.94005 16.62 2.58171 14.2667 2.56755 14.1667C2.55617 14.0595 2.58676 13.9521 2.6529 13.867C2.71905 13.7819 2.81559 13.7257 2.92226 13.7103C3.02893 13.6949 3.13742 13.7214 3.22496 13.7842C3.3125 13.8471 3.37227 13.9415 3.39171 14.0475C3.39421 14.0667 3.69338 15.9775 5.20671 16.4383C5.30157 16.4681 5.38269 16.5307 5.43549 16.6149C5.48829 16.6992 5.50929 16.7995 5.49473 16.8978C5.48016 16.9962 5.43098 17.0861 5.35603 17.1514C5.28109 17.2167 5.18529 17.2532 5.08588 17.2542ZM4.18838 18.9308C4.14658 18.9309 4.10501 18.9247 4.06505 18.9125C1.10088 17.9942 0.305046 14.655 0.272546 14.5133C0.26029 14.46 0.258661 14.4047 0.267753 14.3507C0.276845 14.2968 0.296481 14.2451 0.325538 14.1987C0.354595 14.1523 0.392504 14.1121 0.437102 14.0804C0.481701 14.0486 0.532114 14.026 0.585463 14.0137C0.638813 14.0015 0.694054 13.9999 0.748033 14.0089C0.802012 14.018 0.853671 14.0377 0.900062 14.0667C0.946453 14.0958 0.986666 14.1337 1.01841 14.1783C1.05015 14.2229 1.07279 14.2733 1.08505 14.3267C1.09171 14.3567 1.81171 17.3417 4.31255 18.1167C4.40746 18.1465 4.48857 18.2093 4.54121 18.2937C4.59384 18.3781 4.61453 18.4786 4.59953 18.577C4.58453 18.6753 4.53484 18.7651 4.45943 18.83C4.38402 18.8949 4.28787 18.9306 4.18838 18.9308Z" fill="#5DADEC"/>
</g>
<defs>
<clipPath id="clip0_1630_1184">
<rect width="30" height="30" fill="white"/>
</clipPath>
</defs>
</svg>
