<svg width="25" height="24" viewBox="0 0 25 24" fill="none" xmlns="http://www.w3.org/2000/svg">
<mask id="path-1-inside-1_1661_2105" fill="white">
<path d="M4.885 14.0899H5.664L6.219 12.5559H9.089L9.65 14.0909H10.442L8.132 7.94791H7.175L4.885 14.0899ZM6.505 11.8229L7.629 8.76291H7.679L8.802 11.8229H6.505ZM14.385 9.59291V8.66191C14.9217 8.38991 15.4967 8.18591 16.11 8.04991C16.7233 7.91391 17.3533 7.84591 18 7.84591C18.3693 7.84591 18.724 7.86958 19.064 7.91691C19.4033 7.96491 19.754 8.03225 20.116 8.11891V9.02691C19.7667 8.91558 19.4267 8.83825 19.096 8.79491C18.764 8.75225 18.3987 8.73091 18 8.73091C17.3533 8.73091 16.7227 8.80358 16.108 8.94891C15.492 9.09425 14.9173 9.30858 14.384 9.59191M14.384 15.0539V14.0839C14.896 13.8126 15.4683 13.6089 16.101 13.4729C16.7337 13.3369 17.3667 13.2689 18 13.2689C18.3693 13.2689 18.724 13.2929 19.064 13.3409C19.4033 13.3876 19.754 13.4546 20.116 13.5419V14.4499C19.7667 14.3386 19.4267 14.2612 19.096 14.2179C18.764 14.1752 18.3987 14.1539 18 14.1539C17.3533 14.1539 16.7227 14.2322 16.108 14.3889C15.492 14.5449 14.9173 14.7666 14.384 15.0539ZM14.384 12.3419V11.3729C14.9213 11.1009 15.4967 10.8972 16.11 10.7619C16.7233 10.6266 17.3533 10.5586 18 10.5579C18.3693 10.5579 18.7237 10.5812 19.063 10.6279C19.403 10.6759 19.7537 10.7436 20.115 10.8309V11.7389C19.7663 11.6269 19.4263 11.5496 19.095 11.5069C18.7637 11.4636 18.3987 11.4419 18 11.4419C17.3533 11.4419 16.7227 11.5212 16.108 11.6799C15.492 11.8379 14.9173 12.0586 14.384 12.3419ZM13 17.3199C13.8107 16.8679 14.6283 16.5412 15.453 16.3399C16.2777 16.1386 17.1267 16.0386 18 16.0399C18.6 16.0399 19.1393 16.0769 19.618 16.1509C20.0967 16.2249 20.519 16.3236 20.885 16.4469C21.0383 16.5109 21.1793 16.5012 21.308 16.4179C21.4367 16.3346 21.5007 16.2032 21.5 16.0239V7.00791C21.5 6.89258 21.468 6.78991 21.404 6.69991C21.34 6.61058 21.231 6.53391 21.077 6.46991C20.527 6.27458 20.0267 6.14125 19.576 6.06991C19.1253 5.99858 18.6 5.96225 18 5.96091C17.1267 5.96091 16.2557 6.08958 15.387 6.34691C14.5177 6.60491 13.722 6.99158 13 7.50691V17.3199ZM12.5 18.7699C11.6867 18.2139 10.8133 17.7866 9.88 17.4879C8.94667 17.1892 7.98667 17.0399 7 17.0399C6.48 17.0399 5.96867 17.0832 5.466 17.1699C4.964 17.2572 4.47533 17.3972 4 17.5899C3.63733 17.7346 3.29667 17.6909 2.978 17.4589C2.65933 17.2269 2.5 16.9059 2.5 16.4959V6.83091C2.5 6.58358 2.565 6.35391 2.695 6.14191C2.825 5.92991 3.00733 5.78258 3.242 5.69991C3.82933 5.44125 4.44033 5.25358 5.075 5.13691C5.70967 5.02025 6.35133 4.96191 7 4.96191C7.98 4.96191 8.93533 5.10291 9.866 5.38491C10.798 5.66691 11.676 6.07691 12.5 6.61491C13.3247 6.07691 14.2027 5.66691 15.134 5.38491C16.0653 5.10291 17.0207 4.96191 18 4.96191C18.6487 4.96191 19.2903 5.02025 19.925 5.13691C20.5597 5.25358 21.1707 5.44125 21.758 5.69991C21.9927 5.78325 22.175 5.93058 22.305 6.14191C22.435 6.35325 22.5 6.58291 22.5 6.83091V16.4959C22.5 16.9052 22.328 17.2196 21.984 17.4389C21.6393 17.6576 21.2727 17.6946 20.884 17.5499C20.422 17.3699 19.9493 17.2399 19.466 17.1599C18.9833 17.0792 18.4947 17.0389 18 17.0389C17.0133 17.0389 16.0533 17.1882 15.12 17.4869C14.1867 17.7856 13.3133 18.2129 12.5 18.7689"/>
</mask>
<path d="M4.885 14.0899L3.94801 13.7406L3.44491 15.0899H4.885V14.0899ZM5.664 14.0899V15.0899H6.36564L6.60435 14.4301L5.664 14.0899ZM6.219 12.5559V11.5559H5.51736L5.27865 12.2157L6.219 12.5559ZM9.089 12.5559L10.0282 12.2126L9.78822 11.5559H9.089V12.5559ZM9.65 14.0909L8.71076 14.4342L8.95078 15.0909H9.65V14.0909ZM10.442 14.0909V15.0909H11.8864L11.378 13.7389L10.442 14.0909ZM8.132 7.94791L9.06801 7.59594L8.82433 6.94791H8.132V7.94791ZM7.175 7.94791V6.94791H6.4806L6.23801 7.59856L7.175 7.94791ZM6.505 11.8229L5.56632 11.4781L5.07235 12.8229H6.505V11.8229ZM7.629 8.76291V7.76291H6.93099L6.69032 8.41812L7.629 8.76291ZM7.679 8.76291L8.61778 8.41839L8.37722 7.76291H7.679V8.76291ZM8.802 11.8229V12.8229H10.2342L9.74078 11.4784L8.802 11.8229ZM14.385 8.66191L13.9329 7.76994L13.385 8.04764V8.66191H14.385ZM18 7.84591V8.84591V7.84591ZM19.064 7.91691L19.2041 6.92677L19.2019 6.92647L19.064 7.91691ZM20.116 8.11891H21.116V7.33007L20.3488 7.1464L20.116 8.11891ZM20.116 9.02691L19.8123 9.9797L21.116 10.3952V9.02691H20.116ZM19.096 8.79491L19.2259 7.80339L19.2235 7.80307L19.096 8.79491ZM16.108 8.94891L16.3376 9.92219L16.3381 9.92208L16.108 8.94891ZM14.384 15.0539H13.384V16.7286L14.8583 15.9343L14.384 15.0539ZM14.384 14.0839L13.9157 13.2003L13.384 13.4821V14.0839H14.384ZM19.064 13.3409L18.9242 14.3311L18.9278 14.3316L19.064 13.3409ZM20.116 13.5419H21.116V12.7545L20.3505 12.5698L20.116 13.5419ZM20.116 14.4499L19.8123 15.4027L21.116 15.8182V14.4499H20.116ZM19.096 14.2179L19.2259 13.2264L19.2235 13.2261L19.096 14.2179ZM16.108 14.3889L16.3535 15.3583L16.355 15.3579L16.108 14.3889ZM14.384 12.3419H13.384V14.0055L14.8532 13.225L14.384 12.3419ZM14.384 11.3729L13.9324 10.4807L13.384 10.7583V11.3729H14.384ZM18 10.5579V9.55791L17.999 9.55791L18 10.5579ZM19.063 10.6279L19.2028 9.63773L19.1992 9.63724L19.063 10.6279ZM20.115 10.8309H21.115V10.0438L20.3499 9.8589L20.115 10.8309ZM20.115 11.7389L19.8092 12.691L21.115 13.1105V11.7389H20.115ZM19.095 11.5069L18.9653 12.4985L18.9673 12.4987L19.095 11.5069ZM16.108 11.6799L16.3565 12.6486L16.3579 12.6482L16.108 11.6799ZM13 17.3199H12V19.0224L13.487 18.1933L13 17.3199ZM18 16.0399L17.9985 17.0399H18V16.0399ZM20.885 16.4469L21.2702 15.5241L21.2377 15.5105L21.2043 15.4993L20.885 16.4469ZM21.5 16.0239H20.5L20.5 16.0276L21.5 16.0239ZM21.404 6.69991L22.219 6.12039L22.2169 6.11753L21.404 6.69991ZM21.077 6.46991L21.4608 5.54648L21.4365 5.53639L21.4117 5.52758L21.077 6.46991ZM18 5.96091L18.0022 4.96091H18V5.96091ZM15.387 6.34691L15.103 5.3881L15.1025 5.38824L15.387 6.34691ZM13 7.50691L12.419 6.69298L12 6.99208V7.50691H13ZM5.466 17.1699L5.29609 16.1845L5.2946 16.1847L5.466 17.1699ZM4 17.5899L4.37051 18.5188L4.37564 18.5167L4 17.5899ZM3.242 5.69991L3.57426 6.6431L3.61019 6.63044L3.64505 6.61509L3.242 5.69991ZM7 4.96191V3.96191V4.96191ZM9.866 5.38491L9.57601 6.34194L9.57639 6.34206L9.866 5.38491ZM12.5 6.61491L11.9533 7.45224L12.4998 7.80905L13.0464 7.45244L12.5 6.61491ZM21.758 5.69991L21.3549 6.61509L21.3887 6.62994L21.4234 6.64226L21.758 5.69991ZM21.984 17.4389L22.5197 18.2833L22.5216 18.2821L21.984 17.4389ZM20.884 17.5499L20.521 18.4817L20.528 18.4844L20.5352 18.4871L20.884 17.5499ZM19.466 17.1599L19.3012 18.1462L19.3027 18.1465L19.466 17.1599ZM4.885 15.0899H5.664V13.0899H4.885V15.0899ZM6.60435 14.4301L7.15935 12.8961L5.27865 12.2157L4.72365 13.7497L6.60435 14.4301ZM6.219 13.5559H9.089V11.5559H6.219V13.5559ZM8.14976 12.8992L8.71076 14.4342L10.5892 13.7476L10.0282 12.2126L8.14976 12.8992ZM9.65 15.0909H10.442V13.0909H9.65V15.0909ZM11.378 13.7389L9.06801 7.59594L7.19599 8.29989L9.50599 14.4429L11.378 13.7389ZM8.132 6.94791H7.175V8.94791H8.132V6.94791ZM6.23801 7.59856L3.94801 13.7406L5.82199 14.4393L8.11199 8.29726L6.23801 7.59856ZM7.44368 12.1677L8.56768 9.10771L6.69032 8.41812L5.56632 11.4781L7.44368 12.1677ZM7.629 9.76291H7.679V7.76291H7.629V9.76291ZM6.74022 9.10744L7.86322 12.1674L9.74078 11.4784L8.61778 8.41839L6.74022 9.10744ZM8.802 10.8229H6.505V12.8229H8.802V10.8229ZM15.385 9.59291V8.66191H13.385V9.59291H15.385ZM14.8371 9.55389C15.2958 9.32138 15.7913 9.14487 16.3265 9.0262L15.8935 7.07363C15.202 7.22695 14.5475 7.45844 13.9329 7.76994L14.8371 9.55389ZM16.3265 9.0262C16.8667 8.90642 17.424 8.84591 18 8.84591V6.84591C17.2827 6.84591 16.58 6.92141 15.8935 7.07363L16.3265 9.0262ZM18 8.84591C18.3267 8.84591 18.6351 8.86685 18.9261 8.90736L19.2019 6.92647C18.8129 6.87231 18.412 6.84591 18 6.84591V8.84591ZM18.9239 8.90706C19.2296 8.95029 19.5492 9.01148 19.8832 9.09143L20.3488 7.1464C19.9588 7.05302 19.5771 6.97954 19.2041 6.92677L18.9239 8.90706ZM19.116 8.11891V9.02691H21.116V8.11891H19.116ZM20.4197 8.07413C20.0192 7.94651 19.621 7.85517 19.2259 7.80339L18.9661 9.78644C19.2323 9.82133 19.5141 9.88465 19.8123 9.9797L20.4197 8.07413ZM19.2235 7.80307C18.8421 7.75406 18.4335 7.73091 18 7.73091V9.73091C18.3638 9.73091 18.6859 9.75043 18.9685 9.78676L19.2235 7.80307ZM18 7.73091C17.2777 7.73091 16.5698 7.81216 15.8779 7.97575L16.3381 9.92208C16.8756 9.795 17.429 9.73091 18 9.73091V7.73091ZM15.8784 7.97564C15.183 8.1397 14.5274 8.38339 13.9148 8.7088L14.8532 10.475C15.3073 10.2338 15.801 10.0488 16.3376 9.92219L15.8784 7.97564ZM15.384 15.0539V14.0839H13.384V15.0539H15.384ZM14.8523 14.9675C15.2741 14.7439 15.7581 14.5695 16.3112 14.4506L15.8908 12.4952C15.1786 12.6484 14.5179 12.8812 13.9157 13.2003L14.8523 14.9675ZM16.3112 14.4506C16.8763 14.3291 17.4388 14.2689 18 14.2689V12.2689C17.2945 12.2689 16.5911 12.3447 15.8908 12.4952L16.3112 14.4506ZM18 14.2689C18.326 14.2689 18.6338 14.2901 18.9242 14.3311L19.2038 12.3507C18.8142 12.2957 18.4126 12.2689 18 12.2689V14.2689ZM18.9278 14.3316C19.2313 14.3733 19.5491 14.4338 19.8815 14.514L20.3505 12.5698C19.9589 12.4753 19.5753 12.4018 19.2002 12.3502L18.9278 14.3316ZM19.116 13.5419V14.4499H21.116V13.5419H19.116ZM20.4197 13.4971C20.0192 13.3695 19.621 13.2782 19.2259 13.2264L18.9661 15.2094C19.2323 15.2443 19.5141 15.3077 19.8123 15.4027L20.4197 13.4971ZM19.2235 13.2261C18.8421 13.1771 18.4335 13.1539 18 13.1539V15.1539C18.3638 15.1539 18.6859 15.1734 18.9685 15.2098L19.2235 13.2261ZM18 13.1539C17.2717 13.1539 16.558 13.2423 15.861 13.4199L16.355 15.3579C16.8874 15.2222 17.435 15.1539 18 15.1539V13.1539ZM15.8625 13.4195C15.1708 13.5947 14.5188 13.8454 13.9097 14.1735L14.8583 15.9343C15.3159 15.6878 15.8132 15.4951 16.3535 15.3583L15.8625 13.4195ZM15.384 12.3419V11.3729H13.384V12.3419H15.384ZM14.8356 12.2651C15.2949 12.0326 15.7906 11.8565 16.3255 11.7384L15.8945 9.7854C15.2028 9.93804 14.5477 10.1692 13.9324 10.4807L14.8356 12.2651ZM16.3255 11.7384C16.8663 11.6191 17.4243 11.5585 18.001 11.5579L17.999 9.55791C17.2823 9.55865 16.5803 9.63408 15.8945 9.7854L16.3255 11.7384ZM18 11.5579C18.3273 11.5579 18.6359 11.5786 18.9268 11.6186L19.1992 9.63724C18.8114 9.5839 18.4114 9.55791 18 9.55791V11.5579ZM18.9232 11.6181C19.2287 11.6612 19.5476 11.7226 19.8801 11.8029L20.3499 9.8589C19.9597 9.7646 19.5773 9.6906 19.2028 9.63773L18.9232 11.6181ZM19.115 10.8309V11.7389H21.115V10.8309H19.115ZM20.4208 10.7868C20.0196 10.6579 19.62 10.5663 19.2227 10.5151L18.9673 12.4987C19.2327 12.5329 19.5131 12.5959 19.8092 12.691L20.4208 10.7868ZM19.2247 10.5154C18.8431 10.4655 18.434 10.4419 18 10.4419V12.4419C18.3633 12.4419 18.6842 12.4617 18.9653 12.4985L19.2247 10.5154ZM18 10.4419C17.2706 10.4419 16.5559 10.5315 15.8581 10.7117L16.3579 12.6482C16.8894 12.511 17.4361 12.4419 18 12.4419V10.4419ZM15.8595 10.7113C15.1709 10.8879 14.5217 11.1364 13.9148 11.4588L14.8532 13.225C15.313 12.9808 15.8131 12.7879 16.3565 12.6486L15.8595 10.7113ZM13.487 18.1933C14.2264 17.781 14.9605 17.4895 15.6902 17.3114L15.2158 15.3684C14.2961 15.593 13.3949 15.9548 12.513 16.4465L13.487 18.1933ZM15.6902 17.3114C16.4345 17.1297 17.2032 17.0387 17.9985 17.0399L18.0015 15.0399C17.0501 15.0385 16.1209 15.1475 15.2158 15.3684L15.6902 17.3114ZM18 17.0399C18.5604 17.0399 19.0474 17.0746 19.4652 17.1392L19.7708 15.1627C19.2313 15.0793 18.6396 15.0399 18 15.0399V17.0399ZM19.4652 17.1392C19.9009 17.2065 20.2655 17.2934 20.5657 17.3946L21.2043 15.4993C20.7725 15.3537 20.2925 15.2433 19.7708 15.1627L19.4652 17.1392ZM20.4998 17.3698C20.9275 17.5483 21.4198 17.5369 21.8516 17.2572L20.7644 15.5786C20.8301 15.536 20.9244 15.4977 21.0373 15.49C21.1468 15.4825 21.2286 15.5067 21.2702 15.5241L20.4998 17.3698ZM21.8516 17.2572C22.3183 16.955 22.5017 16.4725 22.5 16.0202L20.5 16.0276C20.4999 15.9984 20.505 15.9185 20.5536 15.8189C20.6053 15.7127 20.6838 15.6307 20.7644 15.5786L21.8516 17.2572ZM22.5 16.0239V7.00791H20.5V16.0239H22.5ZM22.5 7.00791C22.5 6.69467 22.4089 6.38747 22.219 6.12039L20.589 7.27944C20.5615 7.24076 20.5376 7.19413 20.5213 7.14199C20.5052 7.09025 20.5 7.04385 20.5 7.00791H22.5ZM22.2169 6.11753C22.002 5.81761 21.7042 5.64766 21.4608 5.54648L20.6932 7.39335C20.7188 7.40396 20.717 7.40603 20.6989 7.39335C20.6805 7.38036 20.6367 7.346 20.5911 7.2823L22.2169 6.11753ZM21.4117 5.52758C20.8189 5.31706 20.2578 5.16538 19.7323 5.08221L19.4197 7.05762C19.7956 7.11712 20.2351 7.23211 20.7423 7.41225L21.4117 5.52758ZM19.7323 5.08221C19.2177 5.00075 18.6388 4.96233 18.0022 4.96092L17.9978 6.96091C18.5612 6.96216 19.033 6.99641 19.4197 7.05762L19.7323 5.08221ZM18 4.96091C17.0269 4.96091 16.0604 5.10448 15.103 5.3881L15.671 7.30573C16.451 7.07468 17.2264 6.96091 18 6.96091V4.96091ZM15.1025 5.38824C14.1294 5.67703 13.2332 6.11188 12.419 6.69298L13.581 8.32085C14.2108 7.87128 14.9059 7.5328 15.6715 7.30559L15.1025 5.38824ZM12 7.50691V17.3199H14V7.50691H12ZM13.0643 17.9444C12.1715 17.334 11.2108 16.8638 10.1848 16.5355L9.57522 18.4403C10.4158 18.7093 11.2018 19.0938 11.9357 19.5955L13.0643 17.9444ZM10.1848 16.5355C9.15224 16.2051 8.08939 16.0399 7 16.0399V18.0399C7.88395 18.0399 8.74109 18.1734 9.57522 18.4403L10.1848 16.5355ZM7 16.0399C6.42416 16.0399 5.85596 16.0879 5.29609 16.1845L5.63591 18.1554C6.08137 18.0786 6.53584 18.0399 7 18.0399V16.0399ZM5.2946 16.1847C4.72218 16.2843 4.16507 16.444 3.62436 16.6632L4.37564 18.5167C4.7856 18.3505 5.20582 18.2302 5.6374 18.1551L5.2946 16.1847ZM3.62949 16.6611C3.6051 16.6708 3.59235 16.6729 3.58998 16.6733C3.58824 16.6735 3.59232 16.6728 3.59964 16.6738C3.60692 16.6747 3.60993 16.6763 3.60687 16.675C3.60322 16.6735 3.58969 16.6673 3.56657 16.6505L2.38943 18.2674C2.98264 18.6992 3.685 18.7922 4.37051 18.5187L3.62949 16.6611ZM3.56657 16.6505C3.52417 16.6196 3.51635 16.6018 3.51523 16.5996C3.51342 16.5959 3.5 16.569 3.5 16.4959H1.5C1.5 17.2105 1.80026 17.8384 2.38943 18.2674L3.56657 16.6505ZM3.5 16.4959V6.83091H1.5V16.4959H3.5ZM3.5 6.83091C3.5 6.76917 3.51339 6.72027 3.54749 6.66466L1.84251 5.61916C1.61661 5.98756 1.5 6.39799 1.5 6.83091H3.5ZM3.54749 6.66466C3.55242 6.65662 3.55579 6.65252 3.55705 6.65106C3.55826 6.64967 3.55844 6.64967 3.55775 6.65022C3.55707 6.65077 3.55713 6.65059 3.55878 6.64968C3.56051 6.64872 3.56528 6.64626 3.57426 6.6431L2.90974 4.75673C2.45866 4.91563 2.09258 5.21136 1.84251 5.61916L3.54749 6.66466ZM3.64505 6.61509C4.16082 6.38794 4.69719 6.22312 5.25579 6.12044L4.89421 4.15339C4.18347 4.28404 3.49785 4.49455 2.83895 4.78474L3.64505 6.61509ZM5.25579 6.12044C5.83051 6.01479 6.41166 5.96191 7 5.96191V3.96191C6.29101 3.96191 5.58882 4.02571 4.89421 4.15339L5.25579 6.12044ZM7 5.96191C7.88252 5.96191 8.74011 6.08866 9.57601 6.34194L10.156 4.42788C9.13056 4.11717 8.07748 3.96191 7 3.96191V5.96191ZM9.57639 6.34206C10.4165 6.59624 11.208 6.96563 11.9533 7.45224L13.0467 5.77759C12.144 5.18819 11.1795 4.73758 10.1556 4.42777L9.57639 6.34206ZM13.0464 7.45244C13.7926 6.96564 14.5843 6.59619 15.4238 6.342L14.8442 4.42783C13.821 4.73764 12.8567 5.18819 11.9536 5.77738L13.0464 7.45244ZM15.4238 6.342C16.2606 6.08864 17.1182 5.96191 18 5.96191V3.96191C16.9231 3.96191 15.8701 4.11719 14.8442 4.42783L15.4238 6.342ZM18 5.96191C18.5883 5.96191 19.1695 6.01479 19.7442 6.12044L20.1058 4.15339C19.4112 4.02571 18.709 3.96191 18 3.96191V5.96191ZM19.7442 6.12044C20.3028 6.22312 20.8392 6.38794 21.3549 6.61509L22.1611 4.78474C21.5021 4.49455 20.8165 4.28404 20.1058 4.15339L19.7442 6.12044ZM21.4234 6.64226C21.4328 6.64561 21.438 6.64827 21.4401 6.64946C21.4422 6.65061 21.4426 6.65104 21.4422 6.65072C21.4419 6.6504 21.4422 6.65061 21.4436 6.65213C21.4449 6.65372 21.4483 6.65787 21.4532 6.66586L23.1568 5.61797C22.9067 5.21147 22.5415 4.91697 22.0926 4.75757L21.4234 6.64226ZM21.4532 6.66586C21.4864 6.7197 21.5 6.76801 21.5 6.83091H23.5C23.5 6.39782 23.3836 5.9868 23.1568 5.61797L21.4532 6.66586ZM21.5 6.83091V16.4959H23.5V6.83091H21.5ZM21.5 16.4959C21.5 16.5281 21.4966 16.5463 21.4949 16.5539C21.4932 16.5608 21.4923 16.5613 21.4937 16.5586C21.4952 16.556 21.4954 16.5568 21.4908 16.5615C21.4858 16.5667 21.4728 16.5789 21.4464 16.5957L22.5216 18.2821C23.1548 17.8784 23.5 17.2455 23.5 16.4959H21.5ZM21.4483 16.5945C21.393 16.6296 21.3625 16.6345 21.3501 16.6357C21.3371 16.637 21.3019 16.6384 21.2328 16.6127L20.5352 18.4871C21.2114 18.7388 21.906 18.6727 22.5197 18.2833L21.4483 16.5945ZM21.247 16.6181C20.7213 16.4133 20.1817 16.2648 19.6293 16.1733L19.3027 18.1465C19.7169 18.2151 20.1227 18.3265 20.521 18.4817L21.247 16.6181ZM19.6308 16.1736C19.0931 16.0837 18.5493 16.0389 18 16.0389V18.0389C18.44 18.0389 18.8736 18.0748 19.3012 18.1462L19.6308 16.1736ZM18 16.0389C16.9106 16.0389 15.8478 16.2041 14.8152 16.5345L15.4248 18.4393C16.2589 18.1724 17.1161 18.0389 18 18.0389V16.0389ZM14.8152 16.5345C13.7892 16.8628 12.8285 17.333 11.9357 17.9434L13.0643 19.5945C13.7982 19.0928 14.5842 18.7083 15.4248 18.4393L14.8152 16.5345Z" fill="#8B8B8B" mask="url(#path-1-inside-1_1661_2105)"/>
</svg>
