<svg width="25" height="24" viewBox="0 0 25 24" fill="none" xmlns="http://www.w3.org/2000/svg">
<path d="M4.885 14.0899H5.664L6.219 12.5559H9.089L9.65 14.0909H10.442L8.132 7.94791H7.175L4.885 14.0899ZM6.505 11.8229L7.629 8.76291H7.679L8.802 11.8229H6.505ZM14.385 9.59291V8.66191C14.9217 8.38991 15.4967 8.18591 16.11 8.04991C16.7233 7.91391 17.3533 7.84591 18 7.84591C18.3693 7.84591 18.724 7.86958 19.064 7.91691C19.4033 7.96491 19.754 8.03225 20.116 8.11891V9.02691C19.7667 8.91558 19.4267 8.83825 19.096 8.79491C18.764 8.75225 18.3987 8.73091 18 8.73091C17.3533 8.73091 16.7227 8.80358 16.108 8.94891C15.492 9.09425 14.9173 9.30858 14.384 9.59191M14.384 15.0539V14.0839C14.896 13.8126 15.4683 13.6089 16.101 13.4729C16.7337 13.3369 17.3667 13.2689 18 13.2689C18.3693 13.2689 18.724 13.2929 19.064 13.3409C19.4033 13.3876 19.754 13.4546 20.116 13.5419V14.4499C19.7667 14.3386 19.4267 14.2612 19.096 14.2179C18.764 14.1752 18.3987 14.1539 18 14.1539C17.3533 14.1539 16.7227 14.2322 16.108 14.3889C15.492 14.5449 14.9173 14.7666 14.384 15.0539ZM14.384 12.3419V11.3729C14.9213 11.1009 15.4967 10.8972 16.11 10.7619C16.7233 10.6266 17.3533 10.5586 18 10.5579C18.3693 10.5579 18.7237 10.5812 19.063 10.6279C19.403 10.6759 19.7537 10.7436 20.115 10.8309V11.7389C19.7663 11.6269 19.4263 11.5496 19.095 11.5069C18.7637 11.4636 18.3987 11.4419 18 11.4419C17.3533 11.4419 16.7227 11.5212 16.108 11.6799C15.492 11.8379 14.9173 12.0586 14.384 12.3419ZM13 17.3199C13.8107 16.8679 14.6283 16.5412 15.453 16.3399C16.2777 16.1386 17.1267 16.0386 18 16.0399C18.6 16.0399 19.1393 16.0769 19.618 16.1509C20.0967 16.2249 20.519 16.3236 20.885 16.4469C21.0383 16.5109 21.1793 16.5012 21.308 16.4179C21.4367 16.3346 21.5007 16.2032 21.5 16.0239V7.00791C21.5 6.89258 21.468 6.78991 21.404 6.69991C21.34 6.61058 21.231 6.53391 21.077 6.46991C20.527 6.27458 20.0267 6.14125 19.576 6.06991C19.1253 5.99858 18.6 5.96225 18 5.96091C17.1267 5.96091 16.2557 6.08958 15.387 6.34691C14.5177 6.60491 13.722 6.99158 13 7.50691V17.3199ZM12.5 18.7699C11.6867 18.2139 10.8133 17.7866 9.88 17.4879C8.94667 17.1892 7.98667 17.0399 7 17.0399C6.48 17.0399 5.96867 17.0832 5.466 17.1699C4.964 17.2572 4.47533 17.3972 4 17.5899C3.63733 17.7346 3.29667 17.6909 2.978 17.4589C2.65933 17.2269 2.5 16.9059 2.5 16.4959V6.83091C2.5 6.58358 2.565 6.35391 2.695 6.14191C2.825 5.92991 3.00733 5.78258 3.242 5.69991C3.82933 5.44125 4.44033 5.25358 5.075 5.13691C5.70967 5.02025 6.35133 4.96191 7 4.96191C7.98 4.96191 8.93533 5.10291 9.866 5.38491C10.798 5.66691 11.676 6.07691 12.5 6.61491C13.3247 6.07691 14.2027 5.66691 15.134 5.38491C16.0653 5.10291 17.0207 4.96191 18 4.96191C18.6487 4.96191 19.2903 5.02025 19.925 5.13691C20.5597 5.25358 21.1707 5.44125 21.758 5.69991C21.9927 5.78325 22.175 5.93058 22.305 6.14191C22.435 6.35325 22.5 6.58291 22.5 6.83091V16.4959C22.5 16.9052 22.328 17.2196 21.984 17.4389C21.6393 17.6576 21.2727 17.6946 20.884 17.5499C20.422 17.3699 19.9493 17.2399 19.466 17.1599C18.9833 17.0792 18.4947 17.0389 18 17.0389C17.0133 17.0389 16.0533 17.1882 15.12 17.4869C14.1867 17.7856 13.3133 18.2129 12.5 18.7689" fill="url(#paint0_linear_1661_792)"/>
<defs>
<linearGradient id="paint0_linear_1661_792" x1="12.5" y1="4.96191" x2="12.5" y2="18.7699" gradientUnits="userSpaceOnUse">
<stop stop-color="#FB990F"/>
<stop offset="1" stop-color="#EA0505"/>
</linearGradient>
</defs>
</svg>
