<svg width="50" height="51" viewBox="0 0 50 51" fill="none" xmlns="http://www.w3.org/2000/svg">
<path fill-rule="evenodd" clip-rule="evenodd" d="M8.94168 32.3833L18.1167 41.5604L18.8813 42.325L20.4125 43.8541C21.8417 45.2833 22.5563 45.9979 23.3958 46.2229C23.9458 46.3687 24.525 46.3687 25.075 46.2229C25.9146 45.9979 26.6292 45.2833 28.0583 43.8541C29.4875 42.425 30.2042 41.7083 30.4271 40.8687C30.5752 40.3188 30.5752 39.7395 30.4271 39.1896C30.2042 38.35 29.4896 37.6354 28.0583 36.2062L25.7667 33.9125L16.5875 24.7354L14.2938 22.4417C12.8646 21.0125 12.1479 20.2958 11.3104 20.0729C10.7604 19.9258 10.1813 19.9258 9.63127 20.0729C8.7896 20.2958 8.07502 21.0104 6.64585 22.4417C5.21668 23.8708 4.5021 24.5854 4.2771 25.425C4.13127 25.975 4.13127 26.5542 4.2771 27.1042C4.5021 27.9437 5.21668 28.6583 6.64585 30.0875L8.94168 32.3833ZM33.4125 26.2646L24.2354 17.0875L21.9417 14.7937C20.5125 13.3646 19.7958 12.6479 19.5729 11.8104C19.4258 11.2603 19.4258 10.6813 19.5729 10.1312C19.7958 9.28957 20.5104 8.57499 21.9417 7.14582C23.3708 5.71665 24.0854 5.00207 24.925 4.77707C25.475 4.63124 26.0542 4.63124 26.6042 4.77707C27.4438 5.00207 28.1583 5.71665 29.5875 7.14582L31.8833 9.44165L41.05 18.625L41.825 19.3812L43.3542 20.9125C44.7833 22.3417 45.4979 23.0562 45.7229 23.8958C45.8688 24.4458 45.8688 25.025 45.7229 25.575C45.4979 26.4146 44.7833 27.1292 43.3542 28.5583C41.925 29.9875 41.2084 30.7042 40.3688 30.9271C39.8188 31.0751 39.2395 31.0751 38.6896 30.9271C37.85 30.7042 37.1354 29.9896 35.7063 28.5583L33.4125 26.2646Z" fill="url(#paint0_linear_50_484)"/>
<path opacity="0.5" d="M38.7666 8.67501L41.825 11.7333L42.0875 11.9958C43.3541 13.2667 43.9875 13.9542 43.9875 14.7938C43.9875 15.6896 43.2666 16.4104 41.825 17.8521L41.052 18.6229L31.8854 9.4396L32.6479 8.67501C34.0895 7.23335 34.8104 6.51251 35.7062 6.51251C36.602 6.51251 37.325 7.23335 38.7666 8.67501ZM11.2354 42.325L8.17495 39.2646C6.73328 37.8229 6.01245 37.1021 6.01245 36.2063C6.01245 35.3104 6.73328 34.5896 8.17495 33.1479L8.93953 32.3833L18.1166 41.5604L17.352 42.325C15.9104 43.7667 15.1895 44.4875 14.2937 44.4875C13.3979 44.4875 12.677 43.7667 11.2354 42.325ZM33.4104 26.2646L25.7645 33.9104L16.5875 24.7354L24.2333 17.0875L33.4104 26.2646Z" fill="#FB560F"/>
<defs>
<linearGradient id="paint0_linear_50_484" x1="25" y1="4.66769" x2="25" y2="46.3323" gradientUnits="userSpaceOnUse">
<stop stop-color="#FE9365"/>
<stop offset="1" stop-color="#C50000"/>
</linearGradient>
</defs>
</svg>
