<svg width="100" height="100" viewBox="0 0 100 100" fill="none" xmlns="http://www.w3.org/2000/svg">
<rect x="2.5" y="2.5" width="95" height="95" rx="2.5" stroke="#D7D7D7" stroke-width="5"/>
<path d="M43.3918 12.5L51.7252 20.8333H87.5002C88.6052 20.8333 89.665 21.2723 90.4464 22.0537C91.2278 22.8351 91.6668 23.8949 91.6668 25V83.3333C91.6668 84.4384 91.2278 85.4982 90.4464 86.2796C89.665 87.061 88.6052 87.5 87.5002 87.5H12.5002C11.3951 87.5 10.3353 87.061 9.55388 86.2796C8.77248 85.4982 8.3335 84.4384 8.3335 83.3333V16.6667C8.3335 15.5616 8.77248 14.5018 9.55388 13.7204C10.3353 12.939 11.3951 12.5 12.5002 12.5H43.3918ZM50.0002 37.5C48.1658 37.5001 46.3827 38.1054 44.9274 39.2222C43.4721 40.3389 42.4259 41.9046 41.9512 43.6765C41.4764 45.4484 41.5995 47.3274 42.3014 49.0222C43.0034 50.7169 44.2449 52.1327 45.8335 53.05V70.8333H54.1668L54.171 53.05C55.7599 52.1325 57.0016 50.7164 57.7034 49.0212C58.4053 47.326 58.5281 45.4466 58.0528 43.6745C57.5775 41.9024 56.5306 40.3367 55.0746 39.2203C53.6186 38.1038 51.8349 37.4992 50.0002 37.5Z" fill="#D7D7D7"/>
</svg>
