<svg width="30" height="30" viewBox="0 0 30 30" fill="none" xmlns="http://www.w3.org/2000/svg">
<path d="M9.125 22.75V26H7.75V22.75H9.125Z" fill="#8B8B8B" stroke="#8B8B8B" stroke-width="0.5"/>
<path d="M14.115 17.4984C14.43 17.3813 14.6494 17.2359 14.716 17.0512C14.8313 16.7419 14.8978 16.4016 14.8978 16.0425V15.45C14.8978 13.8684 13.6481 12.5878 12.1022 12.5578C12.1022 10.8019 10.6997 9.375 8.97283 9.375C7.24595 9.375 5.84345 10.8019 5.84345 12.5578H5.76752C4.20283 12.5578 2.92408 13.8487 2.92408 15.45V16.0425C2.92408 16.6341 3.10595 17.1872 3.4022 17.6531C2.93544 17.9294 2.54897 18.3228 2.2811 18.7944C2.01322 19.2661 1.87323 19.7995 1.87502 20.3419C1.87502 22.05 3.23908 23.4375 4.91814 23.4375H12.8944C14.5725 23.4375 15.9375 22.05 15.9375 20.3419C15.9443 19.7418 15.7754 19.1528 15.4516 18.6476C15.1277 18.1423 14.6631 17.7428 14.115 17.4984Z" fill="#00D26A"/>
<path d="M8.4375 26.25H25.3125V14.5284L16.9359 6.5625L12.1875 10.5778V6.9525C12.189 6.90214 12.1804 6.85198 12.1623 6.80497C12.1442 6.75796 12.1169 6.71504 12.0819 6.67872C12.047 6.6424 12.0052 6.61341 11.9589 6.59346C11.9127 6.5735 11.8629 6.56298 11.8125 6.5625H9.75937C9.54375 6.5625 9.375 6.73875 9.375 6.9525V12.9562L8.4375 13.7494V26.25Z" fill="#F3C07B"/>
<path d="M16.8309 26.25H11.31C11.2753 26.25 11.25 26.2219 11.25 26.1844V17.9269C11.25 17.3447 11.6784 16.875 12.21 16.875H15.9131C16.4447 16.875 16.8731 17.3447 16.8731 17.9269V26.1844C16.8825 26.2219 16.8572 26.25 16.8309 26.25Z" fill="#8C5543"/>
<path d="M15.4688 22.5C15.5931 22.5 15.7123 22.4506 15.8002 22.3627C15.8881 22.2748 15.9375 22.1556 15.9375 22.0312C15.9375 21.9069 15.8881 21.7877 15.8002 21.6998C15.7123 21.6119 15.5931 21.5625 15.4688 21.5625C15.3444 21.5625 15.2252 21.6119 15.1373 21.6998C15.0494 21.7877 15 21.9069 15 22.0312C15 22.1556 15.0494 22.2748 15.1373 22.3627C15.2252 22.4506 15.3444 22.5 15.4688 22.5Z" fill="#402A32"/>
<path d="M17.0597 27.1875H11.0653C10.6528 27.1875 10.3125 26.7647 10.3125 26.25C10.3125 25.7353 10.6519 25.3125 11.0653 25.3125H17.0597C17.4722 25.3125 17.8125 25.7353 17.8125 26.25C17.8125 26.7647 17.4731 27.1875 17.0597 27.1875Z" fill="#D3D3D3"/>
<path d="M27.3376 15.5578L17.5219 5.89219C17.1563 5.53594 16.5657 5.53594 16.2001 5.89219L16.1907 5.90156L6.3563 15.5859C6.26927 15.6707 6.2001 15.772 6.15287 15.8839C6.10563 15.9958 6.0813 16.116 6.0813 16.2375C6.0813 16.359 6.10563 16.4792 6.15287 16.5911C6.2001 16.703 6.26927 16.8043 6.3563 16.8891C6.72193 17.2453 7.31255 17.2453 7.67818 16.8891L16.8563 7.84219L26.0157 16.8609C26.3813 17.2172 26.9719 17.2172 27.3376 16.8609C27.4246 16.7762 27.4938 16.6749 27.541 16.563C27.5882 16.4511 27.6126 16.3308 27.6126 16.2094C27.6126 16.0879 27.5882 15.9677 27.541 15.8558C27.4938 15.7439 27.4246 15.6425 27.3376 15.5578Z" fill="#F8312F"/>
<path d="M28.125 28.125H1.875C1.875 27.0937 2.71875 26.25 3.75 26.25H26.25C26.7473 26.25 27.2242 26.4475 27.5758 26.7992C27.9275 27.1508 28.125 27.6277 28.125 28.125Z" fill="#00F397"/>
<path d="M22.7663 21.5625H19.4212C19.2435 21.5615 19.0734 21.4905 18.9477 21.3648C18.822 21.2391 18.751 21.069 18.75 20.8913V17.5462C18.751 17.3685 18.822 17.1984 18.9477 17.0727C19.0734 16.947 19.2435 16.876 19.4212 16.875H22.7663C22.944 16.876 23.1141 16.947 23.2398 17.0727C23.3655 17.1984 23.4365 17.3685 23.4375 17.5462V20.8913C23.4365 21.069 23.3655 21.2391 23.2398 21.3648C23.1141 21.4905 22.944 21.5615 22.7663 21.5625Z" fill="#83CBFF"/>
<path d="M24.675 28.125C25.3486 27.7656 25.8562 27.1585 26.0906 26.4319C26.1937 26.1309 26.25 25.8112 26.25 25.4822C26.25 24.6544 25.9125 23.9016 25.3594 23.3559C24.8046 22.8088 24.0573 22.5015 23.2781 22.5C22.1062 22.5 21.0844 23.1956 20.5969 24.1931C20.5486 24.2947 20.4793 24.3848 20.3937 24.4577C20.3081 24.5306 20.208 24.5845 20.1 24.6159C19.3875 24.8419 18.8625 25.4822 18.7688 26.2434C18.7594 26.2622 18.7594 26.2809 18.7688 26.2997C18.75 26.3559 18.75 26.4216 18.75 26.4881C18.75 27.1753 19.1063 27.7678 19.6406 28.1156H24.675V28.125Z" fill="#00D26A"/>
</svg>
