<svg width="30" height="30" viewBox="0 0 30 30" fill="none" xmlns="http://www.w3.org/2000/svg">
<path d="M24.7534 19.1926C24.854 19.266 24.9403 19.3571 25.0073 19.4621C25.0779 19.5729 25.1261 19.6971 25.1489 19.8264C25.1717 19.9556 25.1685 20.0879 25.1401 20.216C25.1118 20.3442 25.0592 20.4659 24.9839 20.5735H24.9829C24.9078 20.6812 24.8123 20.7733 24.7017 20.844C24.591 20.9146 24.4676 20.9627 24.3384 20.9856C24.2092 21.0084 24.0768 21.0052 23.9487 20.9768C23.8526 20.9554 23.7598 20.9205 23.6743 20.8723L23.5913 20.8195L18.7046 17.3987L18.3989 17.7932L22.3706 21.1877L22.3794 21.1955L22.3892 21.2024C22.4968 21.2777 22.5881 21.3739 22.6587 21.4846C22.7292 21.5953 22.7775 21.7186 22.8003 21.8479C22.8231 21.9771 22.8208 22.1094 22.7925 22.2375C22.7712 22.3336 22.7361 22.4264 22.688 22.5119L22.6353 22.5949C22.5603 22.7026 22.4645 22.7948 22.354 22.8654C22.2433 22.9362 22.1191 22.9842 21.9897 23.007C21.8606 23.0298 21.7282 23.0277 21.6001 22.9992C21.5038 22.9778 21.4112 22.9421 21.3257 22.8938L21.2427 22.841L16.7632 19.7053L16.4507 20.094L19.4478 22.8479L19.4595 22.8596L19.4731 22.8694C19.5807 22.9446 19.6731 23.0399 19.7437 23.1506C19.8142 23.2613 19.8624 23.3856 19.8853 23.5149C19.908 23.644 19.9048 23.7765 19.8765 23.9045C19.8552 24.0007 19.8201 24.0933 19.772 24.1789L19.7192 24.2619C19.6442 24.3696 19.5486 24.4617 19.438 24.5324C19.3273 24.6031 19.2031 24.6512 19.0737 24.674C18.9445 24.6968 18.8121 24.6937 18.6841 24.6653C18.5559 24.6367 18.4341 24.5835 18.3267 24.508L14.8081 22.0451L14.4839 22.4221L16.0259 24.0461L16.0425 24.0647L16.063 24.0793C16.1535 24.1427 16.2156 24.2391 16.2349 24.3479C16.2541 24.4566 16.2298 24.5689 16.1665 24.6594C15.9119 25.0232 15.5227 25.2705 15.0854 25.3479C14.648 25.4251 14.1965 25.3252 13.8325 25.0705L8.83936 21.5754C8.68321 21.4658 8.52996 21.3524 8.37939 21.2356L7.93604 20.8742L1.44775 15.3156V15.3147C1.07852 14.9989 1.0084 14.4618 1.26514 14.0656L1.26709 14.0617L4.03857 9.64767L24.7534 19.1926Z" fill="#8B8B8B" stroke="#8B8B8B" stroke-width="0.5"/>
<path d="M24.8351 18.1267L15.4167 11.3342L15.3676 11.2675L15.4117 11.2008L15.4559 11.1567L16.1676 11.5475C16.9659 12.0642 18.7901 12.8275 20.1726 12.8275C21.1184 12.8275 21.6851 12.4733 21.8542 11.78C21.9054 11.4735 21.8332 11.1593 21.6533 10.906C21.4733 10.6527 21.2004 10.4809 20.8942 10.4283C20.0581 10.3032 19.2605 9.99254 18.5601 9.51915L18.0976 9.20832C17.5776 8.85749 16.9884 8.45999 16.5534 8.20332C16.0117 7.87499 15.4226 7.71582 14.7509 7.71582C13.7542 7.71582 12.7417 8.06749 11.7634 8.40749L10.7084 8.77082C10.2531 8.92392 9.77543 9.00024 9.29506 8.99665C8.00839 8.99665 6.74922 8.50832 5.53172 8.03665L5.40922 7.98832C5.15863 7.89253 4.88256 7.88669 4.62814 7.9718C4.37372 8.05691 4.15673 8.22769 4.01422 8.45499L1.12505 13.0575C0.978478 13.287 0.919454 13.5616 0.958782 13.8311C0.99811 14.1006 1.13316 14.3469 1.33922 14.525L7.82672 20.085C8.12006 20.3358 8.42839 20.575 8.74339 20.795L13.8809 24.3917C14.0602 24.5173 14.2625 24.6063 14.4762 24.6537C14.6899 24.7012 14.9109 24.706 15.1265 24.668C15.3421 24.63 15.5481 24.5499 15.7327 24.4323C15.9174 24.3147 16.077 24.1618 16.2026 23.9825C16.3036 23.8374 16.3431 23.6583 16.3125 23.4842C16.2819 23.3101 16.1836 23.1552 16.0392 23.0533L14.5117 21.9842C14.4718 21.9561 14.4381 21.92 14.4128 21.8783C14.3875 21.8365 14.3712 21.79 14.3647 21.7416C14.3583 21.6932 14.362 21.644 14.3755 21.5972C14.3891 21.5503 14.4122 21.5067 14.4434 21.4692C14.4997 21.401 14.5797 21.3566 14.6674 21.345C14.755 21.3335 14.8438 21.3555 14.9159 21.4067L18.2317 23.7275C18.4852 23.905 18.7988 23.9745 19.1036 23.9207C19.4083 23.8669 19.6792 23.6943 19.8567 23.4408C20.0342 23.1873 20.1037 22.8737 20.0499 22.569C19.9962 22.2642 19.8236 21.9933 19.5701 21.8158L16.4667 19.6442C16.4268 19.6161 16.3931 19.58 16.3678 19.5383C16.3425 19.4965 16.3262 19.45 16.3197 19.4016C16.3133 19.3532 16.317 19.304 16.3305 19.2572C16.3441 19.2103 16.3672 19.1667 16.3984 19.1292C16.455 19.0615 16.535 19.0175 16.6225 19.0059C16.71 18.9944 16.7986 19.016 16.8709 19.0667L21.1476 22.0608C21.2731 22.1487 21.4147 22.211 21.5643 22.2441C21.7139 22.2773 21.8685 22.2807 22.0194 22.254C22.1703 22.2274 22.3145 22.1713 22.4437 22.089C22.5729 22.0067 22.6847 21.8997 22.7726 21.7742C22.8604 21.6486 22.9227 21.507 22.9559 21.3574C22.989 21.2078 22.9924 21.0532 22.9658 20.9023C22.9392 20.7514 22.8831 20.6072 22.8007 20.478C22.7184 20.3488 22.6114 20.237 22.4859 20.1492L18.4292 17.31C18.3889 17.2822 18.355 17.2462 18.3294 17.2044C18.3039 17.1627 18.2874 17.116 18.2811 17.0675C18.2747 17.0189 18.2786 16.9696 18.2925 16.9227C18.3064 16.8757 18.33 16.8322 18.3617 16.795C18.4123 16.7346 18.4837 16.6955 18.5618 16.6853C18.6399 16.6751 18.719 16.6946 18.7834 16.74L23.4967 20.0392C23.6223 20.127 23.764 20.1893 23.9136 20.2224C24.0632 20.2556 24.218 20.2589 24.3689 20.2322C24.5198 20.2056 24.664 20.1495 24.7933 20.0671C24.9225 19.9847 25.0343 19.8776 25.1221 19.7521C25.21 19.6265 25.2723 19.4848 25.3054 19.3352C25.3386 19.1855 25.3419 19.0308 25.3152 18.8799C25.2886 18.729 25.2324 18.5848 25.1501 18.4555C25.0677 18.3263 24.9606 18.2145 24.8351 18.1267Z" fill="#F7DECE"/>
<path d="M13.78 23.2742C13.7217 23.4967 13.6075 23.6892 13.4558 23.8417L12.6192 24.6717C12.4656 24.8263 12.2744 24.938 12.0643 24.9959C11.8543 25.0538 11.6327 25.0558 11.4217 25.0017C11.2086 24.9462 11.014 24.8354 10.8575 24.6806C10.701 24.5258 10.5882 24.3324 10.5304 24.1199C10.4727 23.9075 10.472 23.6836 10.5286 23.4708C10.5851 23.2581 10.6969 23.064 10.8525 22.9083L11.6892 22.0783C11.8427 21.9237 12.034 21.8119 12.244 21.754C12.4541 21.6962 12.6756 21.6942 12.8867 21.7483C13.0455 21.7898 13.1947 21.8622 13.3255 21.9614C13.4564 22.0605 13.5665 22.1845 13.6494 22.3262C13.7324 22.4679 13.7866 22.6245 13.809 22.7872C13.8314 22.9498 13.8216 23.1153 13.78 23.2742ZM4.99335 19.1733L6.24585 17.9258C6.38906 17.7828 6.4954 17.6071 6.55572 17.4139C6.61604 17.2207 6.62854 17.0157 6.59214 16.8166C6.55575 16.6175 6.47154 16.4302 6.34677 16.2708C6.222 16.1115 6.0604 15.9848 5.87585 15.9017C5.64465 15.7977 5.38724 15.7667 5.13798 15.8129C4.88872 15.859 4.65947 15.9801 4.48085 16.16L3.22835 17.4075C3.08516 17.5506 2.97887 17.7263 2.91861 17.9196C2.85835 18.1128 2.84592 18.3178 2.8824 18.5169C2.91888 18.716 3.00317 18.9033 3.12803 19.0626C3.25288 19.222 3.41457 19.3486 3.59918 19.4317C3.83039 19.5349 4.08748 19.5654 4.33644 19.5193C4.58539 19.4732 4.81447 19.3525 4.99335 19.1733ZM9.33001 19.2167C9.45271 19.1021 9.55109 18.964 9.61926 18.8106C9.68743 18.6572 9.72401 18.4917 9.72681 18.3238C9.72961 18.156 9.69858 17.9893 9.63557 17.8337C9.57255 17.6781 9.47884 17.5368 9.36004 17.4182C9.24123 17.2997 9.09975 17.2062 8.94405 17.1435C8.78834 17.0808 8.6216 17.05 8.45376 17.0532C8.28593 17.0563 8.12044 17.0932 7.96718 17.1616C7.81391 17.2301 7.676 17.3287 7.56168 17.4517L5.06001 19.95C4.93731 20.0645 4.83894 20.2026 4.77077 20.356C4.7026 20.5094 4.66602 20.675 4.66321 20.8428C4.66041 21.0107 4.69145 21.1773 4.75446 21.3329C4.81748 21.4885 4.91118 21.6298 5.02999 21.7484C5.1488 21.867 5.29028 21.9604 5.44598 22.0231C5.60169 22.0859 5.76843 22.1166 5.93626 22.1135C6.1041 22.1104 6.26958 22.0735 6.42285 22.005C6.57612 21.9365 6.71403 21.8379 6.82835 21.715L9.33001 19.2167ZM11.205 21.7167C11.3737 21.5476 11.4905 21.3338 11.5414 21.1004C11.5924 20.8671 11.5754 20.6241 11.4926 20.4001C11.4097 20.1761 11.2645 19.9805 11.0739 19.8365C10.8834 19.6925 10.6556 19.6061 10.4175 19.5875C10.2377 19.574 10.0572 19.5998 9.88835 19.6631C9.71955 19.7264 9.56656 19.8257 9.44001 19.9542L7.76918 21.6167C7.60022 21.7857 7.48325 21.9996 7.43214 22.233C7.38102 22.4665 7.39791 22.7097 7.48078 22.9339C7.56365 23.158 7.70905 23.3537 7.89974 23.4978C8.09042 23.6418 8.31841 23.7282 8.55668 23.7467C8.93585 23.7767 9.28501 23.6292 9.53418 23.38L11.205 21.7167ZM25.0008 18.2692L25.5233 17.8175L19.7625 8.77582L9.53751 10.43C9.37489 10.4574 9.21927 10.5167 9.07954 10.6043C8.9398 10.6919 8.8187 10.8062 8.72313 10.9406C8.62756 11.075 8.55941 11.2269 8.52255 11.3877C8.4857 11.5484 8.48087 11.7149 8.50835 11.8775C9.05668 14.1233 13.5108 12.455 15.4708 11.3767L25.0008 18.2692Z" fill="#E0AA94"/>
<path d="M13.78 22.4408C13.7217 22.6633 13.6075 22.8558 13.4558 23.0083L12.6192 23.8383C12.4656 23.9929 12.2744 24.1047 12.0643 24.1626C11.8543 24.2205 11.6327 24.2225 11.4217 24.1683C11.2086 24.1129 11.014 24.0021 10.8575 23.8473C10.701 23.6925 10.5882 23.4991 10.5304 23.2866C10.4727 23.0742 10.472 22.8503 10.5286 22.6375C10.5851 22.4248 10.6969 22.2307 10.8525 22.075L11.6892 21.245C11.8427 21.0904 12.034 20.9786 12.244 20.9207C12.4541 20.8628 12.6756 20.8609 12.8867 20.915C13.0455 20.9565 13.1947 21.0289 13.3255 21.128C13.4564 21.2272 13.5665 21.3512 13.6494 21.4929C13.7324 21.6345 13.7866 21.7912 13.809 21.9539C13.8314 22.1165 13.8216 22.282 13.78 22.4408ZM4.99335 18.34L6.24585 17.0925C6.38906 16.9495 6.4954 16.7738 6.55572 16.5806C6.61604 16.3874 6.62854 16.1824 6.59214 15.9833C6.55575 15.7842 6.47154 15.5969 6.34677 15.4375C6.222 15.2782 6.0604 15.1515 5.87585 15.0683C5.64454 14.9649 5.38727 14.9343 5.13815 14.9804C4.88902 15.0266 4.65979 15.1473 4.48085 15.3267L3.22835 16.5742C3.08516 16.7173 2.97887 16.893 2.91861 17.0862C2.85835 17.2795 2.84592 17.4845 2.8824 17.6836C2.91888 17.8827 3.00317 18.07 3.12803 18.2293C3.25288 18.3887 3.41457 18.5153 3.59918 18.5983C3.83039 18.7015 4.08748 18.7321 4.33644 18.686C4.58539 18.6398 4.81447 18.5192 4.99335 18.34ZM9.33001 18.3833C9.45271 18.2688 9.55109 18.1307 9.61926 17.9773C9.68743 17.8239 9.72401 17.6583 9.72681 17.4905C9.72962 17.3227 9.69858 17.156 9.63557 17.0004C9.57255 16.8448 9.47885 16.7035 9.36004 16.5849C9.24123 16.4663 9.09975 16.3729 8.94405 16.3102C8.78834 16.2475 8.6216 16.2167 8.45376 16.2199C8.28593 16.223 8.12044 16.2599 7.96718 16.3283C7.81391 16.3968 7.676 16.4954 7.56168 16.6183L5.06001 19.1167C4.93731 19.2312 4.83894 19.3693 4.77077 19.5227C4.7026 19.6761 4.66602 19.8417 4.66321 20.0095C4.66041 20.1773 4.69145 20.344 4.75446 20.4996C4.81748 20.6552 4.91118 20.7965 5.02999 20.9151C5.1488 21.0337 5.29028 21.1271 5.44598 21.1898C5.60169 21.2526 5.76843 21.2833 5.93626 21.2802C6.1041 21.277 6.26958 21.2401 6.42285 21.1717C6.57612 21.1032 6.71403 21.0046 6.82835 20.8817L9.33001 18.3833ZM11.205 20.8833C11.3737 20.7143 11.4905 20.5004 11.5414 20.2671C11.5924 20.0338 11.5754 19.7908 11.4926 19.5668C11.4097 19.3428 11.2645 19.1472 11.0739 19.0032C10.8834 18.8592 10.6556 18.7728 10.4175 18.7542C10.2377 18.7407 10.0572 18.7665 9.88835 18.8298C9.71955 18.8931 9.56656 18.9924 9.44001 19.1208L7.76918 20.7833C7.60022 20.9524 7.48325 21.1663 7.43214 21.3997C7.38103 21.6332 7.39791 21.8764 7.48078 22.1005C7.56365 22.3247 7.70905 22.5204 7.89974 22.6645C8.09042 22.8085 8.31841 22.8949 8.55668 22.9133C8.93585 22.9433 9.28501 22.7958 9.53418 22.5467L11.205 20.8833ZM29.1692 14.67C29.3898 14.4793 29.534 14.2152 29.5752 13.9265C29.6164 13.6378 29.5518 13.344 29.3933 13.0992L29.3908 13.095L26.5017 7.66084C26.3489 7.41731 26.1163 7.23435 25.8437 7.14316C25.5711 7.05198 25.2752 7.05823 25.0067 7.16084C23.3467 7.80334 21.5283 8.54167 19.7633 7.94167L18.8483 7.6275C17.225 7.065 15.46 6.40584 13.8483 7.3825C13.2692 7.72334 12.4 8.32667 11.8392 8.69917C11.146 9.16127 10.3606 9.46722 9.53751 9.59584C9.37455 9.62258 9.2185 9.68134 9.07838 9.76874C8.93825 9.85613 8.81684 9.97043 8.72114 10.105C8.62545 10.2396 8.55737 10.3918 8.52085 10.5529C8.48433 10.7139 8.48008 10.8806 8.50835 11.0433C9.01918 13.1367 12.925 11.8 15.04 10.7358C15.1721 10.6697 15.3197 10.6411 15.4669 10.653C15.6141 10.6649 15.7553 10.7169 15.875 10.8033L25.5283 17.8167L29.1692 14.67Z" fill="#EEC2AD"/>
</svg>
