<svg width="30" height="30" viewBox="0 0 30 30" fill="none" xmlns="http://www.w3.org/2000/svg">
<g clip-path="url(#clip0_1630_917)">
<path d="M15.0004 0.666061C15.1228 0.66613 15.2419 0.704818 15.3412 0.776413C15.4406 0.848108 15.5154 0.949193 15.5541 1.06548C16.1139 2.74534 16.8768 4.0046 17.8929 4.84282C18.9133 5.68439 20.1661 6.083 21.6664 6.08305C21.8211 6.08305 21.9701 6.14456 22.0795 6.25395C22.1888 6.36335 22.2504 6.51234 22.2504 6.66704C22.2503 6.82155 22.1887 6.96985 22.0795 7.07915C21.9701 7.18854 21.8211 7.25005 21.6664 7.25005C20.2098 7.25 18.9505 6.9158 17.8842 6.26079C16.8173 5.60545 15.9289 4.62041 15.2299 3.29594L15.0043 2.86723L14.7865 3.29985C13.463 5.92006 11.544 7.25005 9.16638 7.25005C9.0118 7.24996 8.86359 7.18845 8.75427 7.07915C8.64496 6.96984 8.58347 6.82161 8.58337 6.66704C8.58337 6.51233 8.64488 6.36335 8.75427 6.25395C8.86358 6.14472 9.01186 6.08314 9.16638 6.08305C10.3703 6.08305 11.4245 5.64883 12.3119 4.79594C13.1936 3.94849 13.9033 2.69586 14.4467 1.06548C14.4853 0.949273 14.5593 0.848088 14.6586 0.776413C14.7579 0.704718 14.8778 0.666061 15.0004 0.666061Z" fill="#8B8B8B" stroke="#8B8B8B" stroke-width="0.5"/>
<path d="M12.2592 8.04499C15.0625 10.85 12.6742 13.0067 9.86921 15.8108C7.06421 18.615 4.90754 21.0042 2.10338 18.2008C1.43638 17.5341 0.907284 16.7424 0.546298 15.8712C0.185311 14.9999 -0.000488281 14.066 -0.000488281 13.1229C-0.000488281 12.1798 0.185311 11.2459 0.546298 10.3747C0.907284 9.50338 1.43638 8.71175 2.10338 8.04499C2.77013 7.378 3.56176 6.8489 4.43304 6.48792C5.30433 6.12693 6.23819 5.94113 7.18129 5.94113C8.12439 5.94113 9.05826 6.12693 9.92954 6.48792C10.8008 6.8489 11.5925 7.378 12.2592 8.04499Z" fill="#FFAC33"/>
<path d="M12.9517 9.14333C14.2717 10.4642 13.1584 13.715 10.4659 16.4075C7.77336 19.1 4.52253 20.2142 3.20169 18.8925C1.88169 17.5725 2.99503 14.3208 5.68669 11.6283C8.38003 8.93666 11.6317 7.82333 12.9517 9.14333Z" fill="#BE1931"/>
<path d="M17.7409 8.04499C14.9384 10.85 17.3259 13.0067 20.1309 15.8108C22.9359 18.615 25.0926 21.0042 27.8967 18.2008C29.2198 16.8492 29.9563 15.0302 29.9462 13.1388C29.9362 11.2474 29.1803 9.43629 27.8429 8.09884C26.5054 6.76139 24.6944 6.00556 22.8029 5.99548C20.9115 5.9854 19.0925 6.72188 17.7409 8.04499Z" fill="#FFAC33"/>
<path d="M17.0491 9.14333C15.7283 10.4642 16.8416 13.715 19.5341 16.4075C22.2258 19.1 25.4783 20.2142 26.7983 18.8925C28.1183 17.5725 27.005 14.3208 24.3125 11.6283C21.6208 8.93666 18.3683 7.82333 17.0491 9.14333Z" fill="#BE1931"/>
<path d="M18.6749 15.1842C18.847 15.0457 19.067 14.9813 19.2866 15.005C20.0091 15.0833 20.6183 15.335 21.0441 15.7325C21.4949 16.1533 21.7166 16.7183 21.6558 17.2842C21.5483 18.2767 20.5524 19.1883 18.8533 19.005C18.1924 18.9342 17.8983 19.1467 17.8883 19.2475C17.8766 19.3483 18.1191 19.6192 18.7799 19.6908C19.5024 19.7692 20.1116 20.0208 20.5374 20.4183C20.9883 20.8392 21.2116 21.4042 21.1491 21.97C21.0416 22.9633 20.0458 23.8742 18.3483 23.6917C17.8666 23.64 17.6124 23.7392 17.5049 23.8033C17.4191 23.8558 17.3849 23.9067 17.3816 23.935C17.3716 24.035 17.6108 24.3058 18.2733 24.3775C18.4931 24.4013 18.6944 24.5114 18.8331 24.6836C18.9717 24.8558 19.0362 25.076 19.0124 25.2958C18.9887 25.5156 18.8786 25.717 18.7064 25.8556C18.5341 25.9942 18.3139 26.0588 18.0941 26.035C16.3966 25.8525 15.6166 24.75 15.7241 23.7558C15.8316 22.7617 16.8274 21.8517 18.5266 22.035C19.0083 22.0875 19.2608 21.9875 19.3683 21.9233C19.4549 21.8717 19.4891 21.8208 19.4916 21.7925C19.5033 21.6917 19.2624 21.4208 18.5999 21.3492C16.9024 21.1658 16.1224 20.0642 16.2299 19.07C16.3374 18.0758 17.3333 17.165 19.0308 17.35C19.5124 17.4017 19.7666 17.3017 19.8741 17.2375C19.9599 17.1858 19.9941 17.135 19.9974 17.1067C20.0074 17.0058 19.7666 16.735 19.1058 16.6633C18.9417 16.6455 18.7867 16.5795 18.6602 16.4735C18.5338 16.3675 18.4416 16.2263 18.3955 16.0679C18.3493 15.9095 18.3513 15.7409 18.401 15.5836C18.4508 15.4263 18.5461 15.2872 18.6749 15.1842Z" fill="#AA8DD8"/>
<path d="M12.7216 29.8567C11.0775 30.3208 9.94331 29.5883 9.67331 28.6258C9.40331 27.6642 9.98831 26.4467 11.6316 25.9842C12.2733 25.8042 12.4658 25.4975 12.44 25.4C12.4116 25.3008 12.0858 25.14 11.4458 25.32C9.80248 25.7833 8.66831 25.05 8.39831 24.0875C8.12665 23.125 8.71331 21.9092 10.3575 21.4467C10.9983 21.2658 11.1916 20.9583 11.1633 20.8608C11.135 20.7633 10.8108 20.6017 10.17 20.7817C10.0632 20.8164 9.95049 20.8292 9.83864 20.8192C9.72679 20.8093 9.6181 20.7769 9.5191 20.7239C9.4201 20.6709 9.33283 20.5984 9.26252 20.5109C9.19222 20.4233 9.14034 20.3225 9.11 20.2143C9.07966 20.1062 9.07148 19.9931 9.08595 19.8818C9.10042 19.7704 9.13725 19.6631 9.19422 19.5664C9.25119 19.4696 9.32713 19.3853 9.41748 19.3187C9.50783 19.252 9.61072 19.2043 9.71998 19.1783C11.3625 18.7158 12.4975 19.4467 12.7691 20.4108C13.0391 21.3725 12.4533 22.5883 10.8091 23.0525C10.1675 23.2325 9.97498 23.5392 10.0033 23.6367C10.03 23.7342 10.355 23.8967 10.995 23.7167C12.64 23.2533 13.7733 23.985 14.0441 24.9492C14.315 25.91 13.7291 27.1258 12.0841 27.59C11.4441 27.7692 11.2516 28.0783 11.2783 28.1742C11.3066 28.2725 11.6308 28.4342 12.2716 28.255C12.484 28.1953 12.7114 28.2225 12.9038 28.3305C13.0962 28.4384 13.2378 28.6184 13.2975 28.8308C13.3572 29.0432 13.33 29.2706 13.222 29.463C13.114 29.6554 12.934 29.797 12.7216 29.8567Z" fill="#77B255"/>
<path d="M2.08337 24.1667C2.77373 24.1667 3.33337 23.607 3.33337 22.9167C3.33337 22.2263 2.77373 21.6667 2.08337 21.6667C1.39302 21.6667 0.833374 22.2263 0.833374 22.9167C0.833374 23.607 1.39302 24.1667 2.08337 24.1667Z" fill="#5C913B"/>
<path d="M5.83329 27.5C6.75377 27.5 7.49996 26.7538 7.49996 25.8333C7.49996 24.9129 6.75377 24.1667 5.83329 24.1667C4.91282 24.1667 4.16663 24.9129 4.16663 25.8333C4.16663 26.7538 4.91282 27.5 5.83329 27.5Z" fill="#9266CC"/>
<path d="M25 24.1667C25.9205 24.1667 26.6667 23.4205 26.6667 22.5C26.6667 21.5795 25.9205 20.8333 25 20.8333C24.0796 20.8333 23.3334 21.5795 23.3334 22.5C23.3334 23.4205 24.0796 24.1667 25 24.1667Z" fill="#9266CC"/>
<path d="M21.25 27.5C21.9404 27.5 22.5 26.9404 22.5 26.25C22.5 25.5596 21.9404 25 21.25 25C20.5596 25 20 25.5596 20 26.25C20 26.9404 20.5596 27.5 21.25 27.5Z" fill="#5C913B"/>
<path d="M14.5834 17.5C15.2737 17.5 15.8334 16.9404 15.8334 16.25C15.8334 15.5596 15.2737 15 14.5834 15C13.893 15 13.3334 15.5596 13.3334 16.25C13.3334 16.9404 13.893 17.5 14.5834 17.5Z" fill="#5C913B"/>
<path d="M5.83329 20.8333C6.75377 20.8333 7.49996 20.0871 7.49996 19.1667C7.49996 18.2462 6.75377 17.5 5.83329 17.5C4.91282 17.5 4.16663 18.2462 4.16663 19.1667C4.16663 20.0871 4.91282 20.8333 5.83329 20.8333Z" fill="#FFCC4D"/>
<path d="M22.9166 15C23.607 15 24.1666 14.4404 24.1666 13.75C24.1666 13.0596 23.607 12.5 22.9166 12.5C22.2263 12.5 21.6666 13.0596 21.6666 13.75C21.6666 14.4404 22.2263 15 22.9166 15Z" fill="#FFCC4D"/>
<path d="M10.4166 13.3333C11.107 13.3333 11.6666 12.7737 11.6666 12.0833C11.6666 11.393 11.107 10.8333 10.4166 10.8333C9.72627 10.8333 9.16663 11.393 9.16663 12.0833C9.16663 12.7737 9.72627 13.3333 10.4166 13.3333Z" fill="#FFCC4D"/>
</g>
<defs>
<clipPath id="clip0_1630_917">
<rect width="30" height="30" fill="white"/>
</clipPath>
</defs>
</svg>
