<svg width="25" height="24" viewBox="0 0 25 24" fill="none" xmlns="http://www.w3.org/2000/svg">
<path d="M12.5 4C12.8429 4 13.1359 4.09853 13.3965 4.29688V4.29785L13.4004 4.2998L19.4043 8.80273C19.5889 8.93811 19.7335 9.11012 19.8408 9.32422C19.9478 9.53773 20.0005 9.76059 20 9.99902V19C20 19.4162 19.8577 19.7605 19.5586 20.0596C19.2596 20.3585 18.916 20.5004 18.501 20.5H15.5C15.3431 20.5 15.2354 20.4523 15.1426 20.3594C15.0722 20.2888 15.0268 20.2096 15.0088 20.1084L15 19.999V15C15 14.5905 14.8552 14.2234 14.5645 13.9336C14.2747 13.645 13.9091 13.501 13.501 13.5H11.5C11.0905 13.5 10.7234 13.6448 10.4336 13.9355C10.1451 14.2253 10.001 14.5909 10 14.999V20C10 20.1571 9.95217 20.2656 9.8584 20.3594C9.76467 20.4531 9.65671 20.5004 9.50098 20.5H6.5C6.08354 20.5 5.73963 20.3578 5.44141 20.0596C5.18039 19.7986 5.03854 19.5021 5.00684 19.1523L5 18.999V10C5 9.76121 5.05301 9.53805 5.16016 9.32422C5.26761 9.10981 5.41262 8.93808 5.59668 8.80273L5.59961 8.7998L11.5996 4.2998L11.6025 4.29785C11.8633 4.09914 12.1568 4 12.5 4Z" stroke="#8B8B8B"/>
</svg>
