<svg width="25" height="26" viewBox="0 0 25 26" fill="none" xmlns="http://www.w3.org/2000/svg">
<path d="M12.5 24.7188C18.9721 24.7188 24.2188 19.4721 24.2188 13C24.2188 6.52791 18.9721 1.28125 12.5 1.28125C6.02791 1.28125 0.78125 6.52791 0.78125 13C0.78125 19.4721 6.02791 24.7188 12.5 24.7188Z" fill="url(#paint0_linear_53_1097)"/>
<path d="M10.5469 11.3594H14.4531V20.7344H10.5469V11.3594Z" fill="white"/>
<path d="M12.5 9.17188C13.5787 9.17188 14.4531 8.29743 14.4531 7.21875C14.4531 6.14007 13.5787 5.26562 12.5 5.26562C11.4213 5.26562 10.5469 6.14007 10.5469 7.21875C10.5469 8.29743 11.4213 9.17188 12.5 9.17188Z" fill="white"/>
<defs>
<linearGradient id="paint0_linear_53_1097" x1="12.5" y1="1.28125" x2="12.5" y2="24.7188" gradientUnits="userSpaceOnUse">
<stop stop-color="#FB990F"/>
<stop offset="1" stop-color="#EA0505"/>
</linearGradient>
</defs>
</svg>
