<svg width="30" height="30" viewBox="0 0 30 30" fill="none" xmlns="http://www.w3.org/2000/svg">
<path d="M19 26.4988H11.5V15.9988C11.5 15.7999 11.579 15.6091 11.7197 15.4685C11.8603 15.3278 12.0511 15.2488 12.25 15.2488H18.25C18.4489 15.2488 18.6397 15.3278 18.7803 15.4685C18.921 15.6091 19 15.7999 19 15.9988V26.4988ZM25.75 26.4988H19V22.8738C19 22.6749 19.079 22.4841 19.2197 22.3435C19.3603 22.2028 19.5511 22.1238 19.75 22.1238H25.75C25.9489 22.1238 26.1397 22.2028 26.2803 22.3435C26.421 22.4841 26.5 22.6749 26.5 22.8738V25.7488C26.5 25.9477 26.421 26.1385 26.2803 26.2791C26.1397 26.4198 25.9489 26.4988 25.75 26.4988ZM11.5 26.4988V20.3738C11.5 20.1749 11.421 19.9841 11.2803 19.8435C11.1397 19.7028 10.9489 19.6238 10.75 19.6238H4.75C4.55109 19.6238 4.36032 19.7028 4.21967 19.8435C4.07902 19.9841 4 20.1749 4 20.3738V25.7488C4 25.9477 4.07902 26.1385 4.21967 26.2791C4.36032 26.4198 4.55109 26.4988 4.75 26.4988H11.5ZM13.7575 6.64005L14.8938 4.2313C14.9244 4.16244 14.9744 4.10395 15.0376 4.0629C15.1009 4.02185 15.1746 4 15.25 4C15.3254 4 15.3991 4.02185 15.4624 4.0629C15.5256 4.10395 15.5756 4.16244 15.6062 4.2313L16.7437 6.64005L19.2838 7.0288C19.61 7.0788 19.74 7.4988 19.5037 7.7388L17.6662 9.6138L18.1 12.2613C18.155 12.6013 17.815 12.8613 17.5225 12.7001L15.25 11.4501L12.9775 12.7001C12.6862 12.8601 12.345 12.6013 12.4 12.2613L12.8338 9.6138L10.9963 7.7388C10.7587 7.4988 10.89 7.0788 11.215 7.0288L13.7575 6.64005Z" fill="url(#paint0_linear_63_615)"/>
<defs>
<linearGradient id="paint0_linear_63_615" x1="15.25" y1="4" x2="15.25" y2="26.4988" gradientUnits="userSpaceOnUse">
<stop stop-color="#FB990F"/>
<stop offset="1" stop-color="#EA0505"/>
</linearGradient>
</defs>
</svg>
