<svg width="50" height="50" viewBox="0 0 50 50" fill="none" xmlns="http://www.w3.org/2000/svg">
<path d="M14.5508 2.375L12.0117 12.1484L14.7266 16.5234L16.2793 13.6523L19.9414 16.6699L21.6504 11.25L14.5508 2.375ZM31.123 6.64258L27.9785 11.3672L29.0234 13.8574L31.1621 11.7383L32.9297 15.918L33.9355 13.7988L31.123 6.64258ZM22.9785 12.9102L20.8398 19.6777L16.8066 16.3672L14.8438 20.0195L11.4062 14.4824L2.77539 47.627H15.127C19.5801 45.9668 28.3398 42.0898 28.5254 37.2461C28.6914 32.5781 17.8906 33.0078 17.7051 28.3398C17.5586 24.5215 25.957 20.3809 25.957 20.3809C25.957 20.3809 20.6738 24.6094 21.3281 27.3145C22.5879 32.4902 33.5938 30.0098 35.3125 35.0586C36.582 38.7891 32.041 45.2441 30.2148 47.627H47.2266L34.8145 16.0449L32.8516 20.2148L30.5566 14.8047L28.3984 16.9434L26.8066 13.125L25.1465 15.6152L22.9785 12.9102Z" fill="url(#paint0_linear_50_487)"/>
<defs>
<linearGradient id="paint0_linear_50_487" x1="25.001" y1="2.375" x2="25.001" y2="47.627" gradientUnits="userSpaceOnUse">
<stop stop-color="#FE9365"/>
<stop offset="1" stop-color="#C50000"/>
</linearGradient>
</defs>
</svg>
