<svg width="31" height="30" viewBox="0 0 31 30" fill="none" xmlns="http://www.w3.org/2000/svg">
<path d="M29.2275 0.5C29.435 0.5 29.6332 0.58102 29.7773 0.722656C29.921 0.863982 30 1.05401 30 1.25V28.7568C30.0013 28.8536 29.9826 28.9499 29.9453 29.04C29.9081 29.13 29.853 29.2126 29.7822 29.2822C29.7113 29.3519 29.6263 29.4077 29.5322 29.4453C29.4381 29.4829 29.3364 29.5014 29.2344 29.5H29.2275C29.0202 29.4999 28.8227 29.4189 28.6787 29.2773C28.535 29.136 28.4561 28.946 28.4561 28.75V1.25C28.4561 1.05399 28.535 0.863989 28.6787 0.722656C28.8227 0.581121 29.0202 0.500117 29.2275 0.5ZM4.36816 0.901367C4.94825 0.92682 5.51014 1.10578 5.99316 1.41992L21.458 11.5527L21.4609 11.5547C21.8865 11.8302 22.2372 12.2006 22.4854 12.6338L22.4893 12.6396L22.5869 12.8105C22.7928 13.1946 22.9201 13.6144 22.9619 14.0469C22.9725 14.5435 22.8676 15.0364 22.6533 15.4873C22.4375 15.9414 22.1171 16.3409 21.7168 16.6543L6.27246 28.4668C5.79628 28.8214 5.23207 29.0415 4.63867 29.1016H4.26953C3.76177 29.1141 3.25852 29.0056 2.80371 28.7852L2.80176 28.7842L2.60254 28.6797C2.21134 28.4575 1.87241 28.1576 1.60742 27.7998L1.48145 27.6162C1.1641 27.1173 0.997407 26.541 1 25.9541V4.03613C1.00161 3.473 1.15658 2.92012 1.44922 2.43457C1.75475 1.94843 2.18587 1.54879 2.7002 1.27734L2.70215 1.27637C3.21212 1.00554 3.788 0.875913 4.36816 0.901367Z" fill="url(#paint0_linear_1692_482)" stroke="url(#paint1_linear_1692_482)"/>
<defs>
<linearGradient id="paint0_linear_1692_482" x1="15.5" y1="0" x2="15.5" y2="30" gradientUnits="userSpaceOnUse">
<stop stop-color="#2DE2E2"/>
<stop offset="1" stop-color="#0922A0"/>
</linearGradient>
<linearGradient id="paint1_linear_1692_482" x1="15.5" y1="0" x2="15.5" y2="30" gradientUnits="userSpaceOnUse">
<stop stop-color="#2DE2E2"/>
<stop offset="1" stop-color="#0922A0"/>
</linearGradient>
</defs>
</svg>
