<svg width="30" height="30" viewBox="0 0 30 30" fill="none" xmlns="http://www.w3.org/2000/svg">
<path d="M6.89539 3.78223L6.90613 3.7998L6.92078 3.78516L8.00964 2.69727L8.48914 2.2168L12.2831 8.50098L12.2909 8.51465L12.3046 8.50684C16.4111 6.14368 21.7337 6.71076 25.2391 10.2139C29.4286 14.4011 29.4276 21.1924 25.2372 25.3809C21.0468 29.569 14.2518 29.5703 10.0624 25.3809C6.55657 21.8769 5.9881 16.5564 8.35437 12.4521L8.36218 12.4395L8.34851 12.4316L2.06042 8.63965L3.62781 7.0752L3.64246 7.06055L3.6239 7.05078L1.13855 5.67676L5.50671 1.30859L6.89539 3.78223ZM8.1991 15.7461C8.1246 16.0898 8.06879 16.4373 8.0321 16.7871L8.03113 16.7979L8.04089 16.8027C8.61012 17.0733 9.33408 17.2995 10.1942 17.4941C12.1411 17.9346 14.7825 18.1992 17.701 18.1992C20.6197 18.1992 23.2618 17.9346 25.2089 17.4941C26.0221 17.3101 26.7135 17.0979 27.2675 16.8467L27.2772 16.8418L27.2762 16.8311C27.2414 16.4832 27.1876 16.1369 27.1151 15.7949L27.1112 15.7754L27.0927 15.7852C26.6321 16.0315 25.8999 16.2804 24.9813 16.4883C23.1439 16.904 20.557 17.1689 17.701 17.1689C14.8453 17.1689 12.2591 16.9039 10.4218 16.4883C9.50297 16.2804 8.77096 16.0305 8.31042 15.7842C8.28094 15.7684 8.25267 15.7521 8.22546 15.7363L8.20886 15.7021L8.1991 15.7461ZM8.27136 3.94141L8.25574 3.94824L8.25769 3.95215L7.45496 4.75488L7.44714 4.76367L7.453 4.77344L8.98035 7.49512L7.36121 9.11426L4.62195 7.60156L4.61218 7.5957L4.60339 7.60449L3.78894 8.41699L3.77527 8.43164L3.79285 8.44141L9.83289 12.083L9.53308 12.5449C9.08913 13.2285 8.7346 13.9661 8.47644 14.7393L8.46472 14.7734L8.49695 14.7578C8.95823 14.5424 9.61905 14.3291 10.4218 14.1475C12.2592 13.7317 14.8461 13.4678 17.702 13.4678C20.5578 13.4678 23.144 13.7318 24.9813 14.1475C25.7203 14.3147 26.3364 14.5091 26.7899 14.707L26.8221 14.7217L26.8104 14.6875C26.3903 13.4534 25.7127 12.2861 24.7772 11.2686L24.7635 11.2549L24.7528 11.2705C24.4901 11.658 23.9698 11.9941 23.2831 12.2334C22.5967 12.4725 21.7452 12.6142 20.8231 12.6143C19.6827 12.6143 18.6502 12.3983 17.9042 12.0488C17.1571 11.6988 16.7021 11.2179 16.702 10.6924C16.702 10.167 17.1571 9.68602 17.9042 9.33594C18.6502 8.98643 19.6827 8.76953 20.8231 8.76953C20.8918 8.76953 20.9604 8.7709 21.0282 8.77246L21.0341 8.74219C18.2081 7.68779 14.991 8.00334 12.3964 9.68555L11.9354 9.9834L8.29187 3.94727L8.28015 3.95312L8.27136 3.94141Z" fill="url(#paint0_linear_1692_2156)" stroke="#B4B4B4" stroke-width="0.03125"/>
<defs>
<linearGradient id="paint0_linear_1692_2156" x1="14.7548" y1="1.2832" x2="14.7548" y2="28.5378" gradientUnits="userSpaceOnUse">
<stop stop-color="#2DE2E2"/>
<stop offset="1" stop-color="#0922A0"/>
</linearGradient>
</defs>
</svg>
