<svg width="25" height="24" viewBox="0 0 25 24" fill="none" xmlns="http://www.w3.org/2000/svg">
<path d="M8.5 13.5H16.5C17.6935 13.5 18.8377 13.9744 19.6816 14.8184C20.5256 15.6623 21 16.8065 21 18C21 18.663 20.7364 19.2987 20.2676 19.7676C19.7987 20.2364 19.163 20.5 18.5 20.5H6.5C5.83696 20.5 5.20126 20.2364 4.73242 19.7676C4.26358 19.2987 4 18.663 4 18C4 16.8065 4.47445 15.6623 5.31836 14.8184C6.16227 13.9744 7.30653 13.5 8.5 13.5ZM12.5 3.5C13.4283 3.5 14.3182 3.86901 14.9746 4.52539C15.631 5.18177 16 6.07174 16 7C16 7.92826 15.631 8.81823 14.9746 9.47461C14.3182 10.131 13.4283 10.5 12.5 10.5C11.5717 10.5 10.6818 10.131 10.0254 9.47461C9.36901 8.81823 9 7.92826 9 7C9 6.07174 9.36901 5.18177 10.0254 4.52539C10.6818 3.86901 11.5717 3.5 12.5 3.5Z" stroke="#8B8B8B"/>
</svg>
