<svg width="31" height="30" viewBox="0 0 31 30" fill="none" xmlns="http://www.w3.org/2000/svg">
<path d="M26.25 6.57422V13.75C26.25 20.4347 21.647 26.6662 15.5 28.2324C9.353 26.6662 4.75 20.4347 4.75 13.75V6.57422L15.5 1.79688L26.25 6.57422ZM15.0889 7.21582L13.3633 9.71582L12.959 10.3008L12.208 10.3643L9.20801 10.6143L8.5 10.6729L8.79492 11.3203L10.0449 14.0576L10.3789 14.791L10.0859 15.4102L8.79785 18.123L8.49023 18.7725L9.20605 18.8359L12.2061 19.0977L12.9404 19.1611L13.3535 19.75L15.0908 22.2246L15.5029 22.8115L15.9111 22.2217L17.624 19.7471L18.0371 19.1484L18.792 19.0859L21.792 18.8359L22.5117 18.7754L22.2021 18.123L20.9141 15.4102L20.6201 14.791L20.9551 14.0576L22.2051 11.3203L22.499 10.6758L21.7939 10.6143L18.7939 10.3516L18.0293 10.2842L17.6367 9.71582L15.9111 7.21582L15.5 6.61914L15.0889 7.21582ZM15.5 10.1621C16.0637 10.1621 16.5712 10.2641 17.0283 10.46L18.0703 10.9062L18.4131 11.2188C18.8292 11.5992 19.1756 11.9848 19.4404 12.4482C19.7126 12.9245 19.8964 13.4256 20.0117 13.9561L20.1475 14.582L19.9707 15.5332C19.8797 16.0223 19.7101 16.5297 19.4424 16.999C19.1589 17.474 18.8085 17.8805 18.4258 18.207L17.8389 18.707L17.0439 18.9912C16.5606 19.1638 16.0558 19.2754 15.5 19.2754C14.9433 19.2754 14.4242 19.1638 13.9268 18.9902L13.167 18.7246L12.5742 18.2197C12.2385 17.9334 11.9279 17.5862 11.666 17.1777L11.5576 16.999C11.2977 16.5218 11.1186 16.013 11.0293 15.5332L10.8516 14.582L10.9883 13.9561C11.0906 13.4856 11.2345 13.0469 11.4551 12.6318L11.5547 12.4561L11.5596 12.4482C11.8225 11.9882 12.1794 11.604 12.5869 11.2324L12.9775 10.875L13.9678 10.4609C14.2451 10.3448 14.4015 10.2793 14.5986 10.2344C14.7939 10.1899 15.049 10.1621 15.5 10.1621ZM15.5 10.6123C13.2365 10.6123 11.3879 12.4611 11.3877 14.7246C11.3877 16.9871 13.2227 18.8379 15.5 18.8379C17.7761 18.8379 19.6123 17.0008 19.6123 14.7246C19.6121 12.4486 17.776 10.6123 15.5 10.6123Z" fill="url(#paint0_linear_1692_234)" stroke="url(#paint1_linear_1692_234)"/>
<defs>
<linearGradient id="paint0_linear_1692_234" x1="15.5" y1="1.25" x2="15.5" y2="28.75" gradientUnits="userSpaceOnUse">
<stop stop-color="#2DE2E2"/>
<stop offset="1" stop-color="#0922A0"/>
</linearGradient>
<linearGradient id="paint1_linear_1692_234" x1="15.5" y1="1.25" x2="15.5" y2="28.75" gradientUnits="userSpaceOnUse">
<stop stop-color="#2DE2E2"/>
<stop offset="1" stop-color="#0922A0"/>
</linearGradient>
</defs>
</svg>
