<svg width="31" height="30" viewBox="0 0 31 30" fill="none" xmlns="http://www.w3.org/2000/svg">
<path d="M14.4326 7.0625C18.0953 7.06255 21.2057 9.43936 22.2109 12.7109L22.543 13.792L23.1191 12.8184L23.873 11.543C23.932 11.4431 24.0283 11.3708 24.1406 11.3418C24.2531 11.3129 24.3727 11.3296 24.4727 11.3887C24.5725 11.4477 24.6448 11.5439 24.6738 11.6562C24.7028 11.7687 24.686 11.8883 24.627 11.9883L22.5898 15.4316C22.5316 15.5302 22.4367 15.6022 22.3262 15.6318C22.2434 15.6541 22.1565 15.6514 22.0762 15.625L21.998 15.5908L18.4707 13.6016C18.4207 13.5733 18.3763 13.5355 18.3408 13.4902C18.3055 13.4451 18.2791 13.3931 18.2637 13.3379C18.2483 13.2827 18.2441 13.2249 18.251 13.168C18.2579 13.1109 18.2765 13.0559 18.3047 13.0059C18.3329 12.9558 18.3708 12.9114 18.416 12.876C18.4612 12.8406 18.5131 12.8142 18.5684 12.7988C18.6236 12.7835 18.6813 12.7792 18.7383 12.7861C18.7952 12.793 18.8504 12.8108 18.9004 12.8389L20.7402 13.877L21.7549 14.4482L21.4717 13.3193C20.6979 10.2354 17.8499 7.9375 14.4336 7.9375C10.421 7.93758 7.1875 11.1093 7.1875 15C7.1875 18.8907 10.4212 22.0625 14.4326 22.0625C14.5486 22.0625 14.6602 22.1084 14.7422 22.1904C14.8242 22.2725 14.8701 22.384 14.8701 22.5C14.8701 22.616 14.8242 22.7275 14.7422 22.8096C14.6602 22.8916 14.5486 22.9375 14.4326 22.9375C9.957 22.9375 6.3125 19.3935 6.3125 15C6.3125 10.6065 9.957 7.0625 14.4326 7.0625Z" fill="url(#paint0_linear_1692_2080)" stroke="url(#paint1_linear_1692_2080)"/>
<defs>
<linearGradient id="paint0_linear_1692_2080" x1="15.5002" y1="6.5625" x2="15.5002" y2="23.4375" gradientUnits="userSpaceOnUse">
<stop stop-color="#2DE2E2"/>
<stop offset="1" stop-color="#0922A0"/>
</linearGradient>
<linearGradient id="paint1_linear_1692_2080" x1="15.5002" y1="6.5625" x2="15.5002" y2="23.4375" gradientUnits="userSpaceOnUse">
<stop stop-color="#2DE2E2"/>
<stop offset="1" stop-color="#0922A0"/>
</linearGradient>
</defs>
</svg>
