<svg width="40" height="40" viewBox="0 0 40 40" fill="none" xmlns="http://www.w3.org/2000/svg">
<path d="M18.3575 9.96997C13.7175 9.96997 10.7775 13.26 9.64749 16.99L9.49749 17.49H6.24249C5.91097 17.49 5.59303 17.6217 5.35861 17.8561C5.12419 18.0905 4.99249 18.4085 4.99249 18.74C4.99249 20.4525 5.46749 22.06 6.29749 23.2725C6.58999 23.6975 6.93749 24.09 7.33499 24.4175L6.58749 26.23C6.41668 26.6454 6.35083 27.0966 6.39576 27.5435C6.44069 27.9905 6.59501 28.4195 6.8451 28.7926C7.09518 29.1658 7.43333 29.4716 7.82965 29.683C8.22598 29.8945 8.66829 30.005 9.11749 30.005H11.8C12.86 30.005 13.825 29.395 14.275 28.435L15.035 26.8225C17.3138 27.1173 19.6212 27.1173 21.9 26.8225L22.6575 28.435C23.1075 29.395 24.075 30.0075 25.1325 30.0075H27.79C28.24 30.0085 28.6834 29.8983 29.0806 29.6868C29.4779 29.4753 29.8167 29.1689 30.067 28.7949C30.3174 28.4208 30.4715 27.9908 30.5156 27.5429C30.5597 27.095 30.4925 26.6431 30.32 26.2275L29.815 25.0025H32.2275C33.77 25.0025 35.0075 23.6925 35.0075 22.1725V20.6225C35.0075 18.2725 33.1725 16.2475 30.7825 16.2475H27.1225C25.7875 12.785 22.64 9.97247 18.3575 9.97247M28.9675 22.505L27.885 18.75H30.7825C31.675 18.75 32.5075 19.535 32.5075 20.625V22.175C32.5062 22.2661 32.4694 22.3531 32.405 22.4175C32.335 22.4875 32.2675 22.505 32.2275 22.505H28.9675ZM24.45 26.3675C25.42 26.1441 26.3808 25.8675 27.3325 25.5375L28.01 27.18C28.0248 27.2157 28.0306 27.2546 28.0268 27.2931C28.023 27.3316 28.0097 27.3685 27.9882 27.4007C27.9667 27.4328 27.9376 27.4592 27.9034 27.4774C27.8693 27.4956 27.8312 27.505 27.7925 27.505H25.1375C25.0922 27.5067 25.0475 27.4948 25.0091 27.4707C24.9708 27.4466 24.9406 27.4115 24.9225 27.37L24.45 26.3675ZM9.58249 25.5325C10.5408 25.8658 11.51 26.145 12.49 26.37L12.015 27.37C11.9975 27.4116 11.9678 27.4469 11.9299 27.4714C11.892 27.496 11.8476 27.5085 11.8025 27.5075H9.11749C9.0788 27.5075 9.0407 27.4981 9.00656 27.4799C8.97241 27.4617 8.94329 27.4353 8.92177 27.4032C8.90026 27.371 8.88701 27.3341 8.88321 27.2956C8.87941 27.2571 8.88518 27.2182 8.89999 27.1825L9.58249 25.5325ZM8.74249 19.99L8.23749 21.665C7.93493 21.1465 7.72353 20.5799 7.61249 19.99H8.74249Z" fill="url(#paint0_linear_63_736)"/>
<defs>
<linearGradient id="paint0_linear_63_736" x1="20" y1="9.96997" x2="20" y2="30.0075" gradientUnits="userSpaceOnUse">
<stop stop-color="#7F7F7F"/>
<stop offset="1" stop-color="#5E5D5D"/>
</linearGradient>
</defs>
</svg>
