<svg width="48" height="47" viewBox="0 0 48 47" fill="none" xmlns="http://www.w3.org/2000/svg">
<g clip-path="url(#clip0_91_2824)" filter="url(#filter0_d_91_2824)">
<g filter="url(#filter1_d_91_2824)">
<path d="M22.5092 2.0031C22.0154 2.00464 21.4692 2.22618 20.9708 2.7231L12.1723 12.6754H5.53846C4.69077 12.6754 4 13.3662 4 14.2139V26.5216C4 27.3693 4.69077 28.06 5.53846 28.06H12.1738L20.9231 37.9646C22.4615 39.5031 24 38.7154 24 36.6185V3.87541C24 2.65849 23.3338 1.99541 22.5092 2.00002V2.0031ZM33.6631 5.08002C33.3359 5.1371 33.0359 5.29854 32.8081 5.54021C32.5802 5.78187 32.4367 6.09078 32.399 6.42077C32.3612 6.75076 32.4313 7.08411 32.5987 7.37098C32.7661 7.65785 33.0218 7.88285 33.3277 8.01233C35.6168 9.16257 37.54 10.9279 38.8817 13.1104C40.2233 15.2928 40.9302 17.8059 40.9231 20.3677C40.9231 25.7893 37.8462 30.4446 33.3262 32.7231C33.1205 32.7947 32.9323 32.9091 32.7741 33.0588C32.616 33.2085 32.4914 33.3901 32.4086 33.5916C32.3259 33.793 32.2869 34.0097 32.2941 34.2274C32.3014 34.4451 32.3548 34.6587 32.4508 34.8542C32.5468 35.0497 32.6832 35.2226 32.8509 35.3614C33.0187 35.5003 33.2141 35.6019 33.4241 35.6596C33.6341 35.7173 33.854 35.7298 34.0691 35.6962C34.2843 35.6625 34.4899 35.5836 34.6723 35.4646C40.2 32.6754 44 26.9646 44 20.3677C44 13.7708 40.1985 8.06002 34.6723 5.27079C34.409 5.12385 34.1084 5.05751 33.8077 5.08002C33.7595 5.07776 33.7113 5.07776 33.6631 5.08002ZM30.0092 11.04C29.678 11.0643 29.3635 11.1952 29.1128 11.4131C28.862 11.631 28.6886 11.9241 28.6183 12.2488C28.548 12.5734 28.5847 12.9121 28.7228 13.2141C28.8609 13.5162 29.0931 13.7655 29.3846 13.9246C31.7585 15.4 33.2308 17.7369 33.2308 20.3677C33.2308 23.0169 31.7354 25.3846 29.3369 26.8585C29.1485 26.9568 28.9825 27.0931 28.8493 27.2587C28.7162 27.4244 28.6188 27.6158 28.5634 27.821C28.5079 28.0261 28.4955 28.2405 28.5271 28.4507C28.5586 28.6609 28.6333 28.8623 28.7465 29.0421C28.8598 29.222 29.009 29.3764 29.1849 29.4957C29.3608 29.615 29.5595 29.6966 29.7684 29.7353C29.9774 29.7739 30.1921 29.7689 30.3991 29.7205C30.606 29.6721 30.8007 29.5813 30.9708 29.4539C34.1554 27.5 36.3077 24.1769 36.3077 20.3677C36.3077 16.5816 34.1738 13.24 31.0185 11.2816C30.7607 11.1169 30.4597 11.0328 30.1538 11.04C30.1057 11.0378 30.0574 11.0378 30.0092 11.04Z" fill="white"/>
</g>
</g>
<defs>
<filter id="filter0_d_91_2824" x="0" y="0" width="48" height="48" filterUnits="userSpaceOnUse" color-interpolation-filters="sRGB">
<feFlood flood-opacity="0" result="BackgroundImageFix"/>
<feColorMatrix in="SourceAlpha" type="matrix" values="0 0 0 0 0 0 0 0 0 0 0 0 0 0 0 0 0 0 127 0" result="hardAlpha"/>
<feOffset dy="4"/>
<feGaussianBlur stdDeviation="2"/>
<feComposite in2="hardAlpha" operator="out"/>
<feColorMatrix type="matrix" values="0 0 0 0 0 0 0 0 0 0 0 0 0 0 0 0 0 0 0.25 0"/>
<feBlend mode="normal" in2="BackgroundImageFix" result="effect1_dropShadow_91_2824"/>
<feBlend mode="normal" in="SourceGraphic" in2="effect1_dropShadow_91_2824" result="shape"/>
</filter>
<filter id="filter1_d_91_2824" x="0" y="2" width="48" height="44.7692" filterUnits="userSpaceOnUse" color-interpolation-filters="sRGB">
<feFlood flood-opacity="0" result="BackgroundImageFix"/>
<feColorMatrix in="SourceAlpha" type="matrix" values="0 0 0 0 0 0 0 0 0 0 0 0 0 0 0 0 0 0 127 0" result="hardAlpha"/>
<feOffset dy="4"/>
<feGaussianBlur stdDeviation="2"/>
<feComposite in2="hardAlpha" operator="out"/>
<feColorMatrix type="matrix" values="0 0 0 0 0 0 0 0 0 0 0 0 0 0 0 0 0 0 0.25 0"/>
<feBlend mode="normal" in2="BackgroundImageFix" result="effect1_dropShadow_91_2824"/>
<feBlend mode="normal" in="SourceGraphic" in2="effect1_dropShadow_91_2824" result="shape"/>
</filter>
<clipPath id="clip0_91_2824">
<rect width="40" height="40" fill="white" transform="translate(4)"/>
</clipPath>
</defs>
</svg>
