<svg width="22" height="22" viewBox="0 0 22 22" fill="none" xmlns="http://www.w3.org/2000/svg">
<path d="M1.375 3.78125C1.375 3.50775 1.48365 3.24544 1.67705 3.05205C1.87044 2.85865 2.13275 2.75 2.40625 2.75H19.5938C19.8673 2.75 20.1296 2.85865 20.323 3.05205C20.5163 3.24544 20.625 3.50775 20.625 3.78125C20.625 4.05475 20.5163 4.31706 20.323 4.51045C20.1296 4.70385 19.8673 4.8125 19.5938 4.8125H2.40625C2.13275 4.8125 1.87044 4.70385 1.67705 4.51045C1.48365 4.31706 1.375 4.05475 1.375 3.78125ZM1.375 10.6562C1.375 10.3827 1.48365 10.1204 1.67705 9.92705C1.87044 9.73365 2.13275 9.625 2.40625 9.625H19.5938C19.8673 9.625 20.1296 9.73365 20.323 9.92705C20.5163 10.1204 20.625 10.3827 20.625 10.6562C20.625 10.9298 20.5163 11.1921 20.323 11.3855C20.1296 11.5788 19.8673 11.6875 19.5938 11.6875H2.40625C2.13275 11.6875 1.87044 11.5788 1.67705 11.3855C1.48365 11.1921 1.375 10.9298 1.375 10.6562ZM2.40625 16.5H19.5938C19.8673 16.5 20.1296 16.6087 20.323 16.802C20.5163 16.9954 20.625 17.2577 20.625 17.5312C20.625 17.8048 20.5163 18.0671 20.323 18.2605C20.1296 18.4538 19.8673 18.5625 19.5938 18.5625H2.40625C2.13275 18.5625 1.87044 18.4538 1.67705 18.2605C1.48365 18.0671 1.375 17.8048 1.375 17.5312C1.375 17.2577 1.48365 16.9954 1.67705 16.802C1.87044 16.6087 2.13275 16.5 2.40625 16.5Z" fill="#6F6F6F"/>
</svg>
