<svg width="25" height="24" viewBox="0 0 25 24" fill="none" xmlns="http://www.w3.org/2000/svg">
<path d="M17.5001 14H13.1591C12.6873 15.3344 11.7589 16.4591 10.5381 17.1753C9.31727 17.8914 7.88258 18.1529 6.48759 17.9136C5.09259 17.6743 3.82713 16.9495 2.91484 15.8673C2.00256 14.7852 1.5022 13.4154 1.5022 12C1.5022 10.5846 2.00256 9.21483 2.91484 8.13269C3.82713 7.05055 5.09259 6.32576 6.48759 6.08642C7.88258 5.84708 9.31727 6.1086 10.5381 6.82475C11.7589 7.5409 12.6873 8.66558 13.1591 10H23.5001V14H21.5001V18H17.5001V14ZM7.50005 14C8.03048 14 8.53919 13.7893 8.91426 13.4142C9.28934 13.0392 9.50005 12.5304 9.50005 12C9.50005 11.4696 9.28934 10.9609 8.91426 10.5858C8.53919 10.2107 8.03048 10 7.50005 10C6.96962 10 6.46091 10.2107 6.08584 10.5858C5.71076 10.9609 5.50005 11.4696 5.50005 12C5.50005 12.5304 5.71076 13.0392 6.08584 13.4142C6.46091 13.7893 6.96962 14 7.50005 14Z" fill="url(#paint0_linear_1661_2032)"/>
<defs>
<linearGradient id="paint0_linear_1661_2032" x1="12.5011" y1="6" x2="12.5011" y2="18" gradientUnits="userSpaceOnUse">
<stop stop-color="#FB990F"/>
<stop offset="1" stop-color="#EA0505"/>
</linearGradient>
</defs>
</svg>
