<svg width="25" height="24" viewBox="0 0 25 24" fill="none" xmlns="http://www.w3.org/2000/svg">
<path d="M6.57245 6.5791C7.85107 6.35982 9.16636 6.59945 10.2853 7.25586C11.4044 7.91234 12.2552 8.94382 12.6877 10.167L12.8058 10.5H23.0002V13.5H21.0002V17.5H18.0002V13.5H12.8058L12.6877 13.833C12.2552 15.0562 11.4043 16.0877 10.2853 16.7441C9.16636 17.4006 7.85107 17.6402 6.57245 17.4209C5.29371 17.2015 4.13332 16.5369 3.29706 15.5449C2.46084 14.553 2.00214 13.2974 2.00214 12C2.00214 10.7026 2.46083 9.44702 3.29706 8.45508C4.13332 7.46312 5.29371 6.7985 6.57245 6.5791ZM7.50018 9.5C6.83719 9.5 6.20144 9.76365 5.7326 10.2324C5.26377 10.7013 5.00019 11.337 5.00018 12C5.00018 12.663 5.26376 13.2987 5.7326 13.7676C6.20144 14.2364 6.83718 14.5 7.50018 14.5C8.16316 14.4999 8.79897 14.2364 9.26776 13.7676C9.73654 13.2987 10.0002 12.663 10.0002 12C10.0002 11.337 9.73654 10.7013 9.26776 10.2324C8.79897 9.76363 8.16316 9.50005 7.50018 9.5Z" stroke="#8B8B8B"/>
</svg>
