<svg width="52" height="52" viewBox="0 0 52 52" fill="none" xmlns="http://www.w3.org/2000/svg">
<g filter="url(#filter0_d_596_2730)">
<rect x="4" width="44" height="44" rx="22" fill="url(#paint0_linear_596_2730)"/>
<path d="M27.875 8.875C27.875 8.37772 27.6775 7.90081 27.3258 7.54917C26.9742 7.19754 26.4973 7 26 7C25.5027 7 25.0258 7.19754 24.6742 7.54917C24.3225 7.90081 24.125 8.37772 24.125 8.875V10.75C24.125 11.2473 24.3225 11.7242 24.6742 12.0758C25.0258 12.4275 25.5027 12.625 26 12.625C26.4973 12.625 26.9742 12.4275 27.3258 12.0758C27.6775 11.7242 27.875 11.2473 27.875 10.75V8.875ZM36.6069 14.0444C36.9484 13.6907 37.1374 13.2171 37.1331 12.7255C37.1289 12.2339 36.9317 11.7636 36.584 11.416C36.2364 11.0683 35.7661 10.8711 35.2745 10.8669C34.7829 10.8626 34.3093 11.0516 33.9556 11.3931L32.63 12.7188C32.2885 13.0724 32.0995 13.546 32.1037 14.0376C32.108 14.5292 32.3052 14.9995 32.6528 15.3472C33.0005 15.6948 33.4708 15.892 33.9624 15.8963C34.454 15.9005 34.9276 15.7115 35.2812 15.37L36.6069 14.0444ZM41 22C41 22.4973 40.8025 22.9742 40.4508 23.3258C40.0992 23.6775 39.6223 23.875 39.125 23.875H37.25C36.7527 23.875 36.2758 23.6775 35.9242 23.3258C35.5725 22.9742 35.375 22.4973 35.375 22C35.375 21.5027 35.5725 21.0258 35.9242 20.6742C36.2758 20.3225 36.7527 20.125 37.25 20.125H39.125C39.6223 20.125 40.0992 20.3225 40.4508 20.6742C40.8025 21.0258 41 21.5027 41 22ZM16.7188 15.37C16.8917 15.5491 17.0986 15.6919 17.3274 15.7902C17.5561 15.8885 17.8022 15.9402 18.0511 15.9423C18.3001 15.9445 18.547 15.8971 18.7774 15.8028C19.0078 15.7085 19.2172 15.5693 19.3932 15.3932C19.5693 15.2172 19.7085 15.0078 19.8028 14.7774C19.8971 14.547 19.9445 14.3001 19.9423 14.0511C19.9402 13.8022 19.8885 13.5561 19.7902 13.3274C19.6919 13.0986 19.5491 12.8917 19.37 12.7188L18.0444 11.3931C17.6907 11.0516 17.2171 10.8626 16.7255 10.8669C16.2339 10.8711 15.7636 11.0683 15.416 11.416C15.0683 11.7636 14.8711 12.2339 14.8669 12.7255C14.8626 13.2171 15.0516 13.6907 15.3931 14.0444L16.7188 15.37ZM16.625 22C16.625 22.4973 16.4275 22.9742 16.0758 23.3258C15.7242 23.6775 15.2473 23.875 14.75 23.875H12.875C12.3777 23.875 11.9008 23.6775 11.5492 23.3258C11.1975 22.9742 11 22.4973 11 22C11 21.5027 11.1975 21.0258 11.5492 20.6742C11.9008 20.3225 12.3777 20.125 12.875 20.125H14.75C15.2473 20.125 15.7242 20.3225 16.0758 20.6742C16.4275 21.0258 16.625 21.5027 16.625 22ZM22.25 33.25V31.375H29.75V33.25C29.75 34.2446 29.3549 35.1984 28.6516 35.9016C27.9484 36.6049 26.9946 37 26 37C25.0054 37 24.0516 36.6049 23.3484 35.9016C22.6451 35.1984 22.25 34.2446 22.25 33.25ZM29.75 29.5C29.7781 28.8625 30.14 28.2887 30.6444 27.8894C31.8682 26.9242 32.7609 25.6018 33.1984 24.1059C33.6359 22.61 33.5966 21.015 33.0858 19.5425C32.575 18.07 31.6182 16.7932 30.3483 15.8896C29.0784 14.986 27.5586 14.5004 26 14.5004C24.4414 14.5004 22.9216 14.986 21.6517 15.8896C20.3818 16.7932 19.425 18.07 18.9142 19.5425C18.4034 21.015 18.3641 22.61 18.8016 24.1059C19.2391 25.6018 20.1318 26.9242 21.3556 27.8894C21.8619 28.2887 22.2219 28.8625 22.2481 29.5H29.75Z" fill="white"/>
</g>
<defs>
<filter id="filter0_d_596_2730" x="0" y="0" width="52" height="52" filterUnits="userSpaceOnUse" color-interpolation-filters="sRGB">
<feFlood flood-opacity="0" result="BackgroundImageFix"/>
<feColorMatrix in="SourceAlpha" type="matrix" values="0 0 0 0 0 0 0 0 0 0 0 0 0 0 0 0 0 0 127 0" result="hardAlpha"/>
<feOffset dy="4"/>
<feGaussianBlur stdDeviation="2"/>
<feComposite in2="hardAlpha" operator="out"/>
<feColorMatrix type="matrix" values="0 0 0 0 0 0 0 0 0 0 0 0 0 0 0 0 0 0 0.25 0"/>
<feBlend mode="normal" in2="BackgroundImageFix" result="effect1_dropShadow_596_2730"/>
<feBlend mode="normal" in="SourceGraphic" in2="effect1_dropShadow_596_2730" result="shape"/>
</filter>
<linearGradient id="paint0_linear_596_2730" x1="26" y1="0" x2="26" y2="44" gradientUnits="userSpaceOnUse">
<stop stop-color="#FB990F"/>
<stop offset="1" stop-color="#EA0505"/>
</linearGradient>
</defs>
</svg>
