<svg width="80" height="84" viewBox="0 0 80 84" fill="none" xmlns="http://www.w3.org/2000/svg">
<g filter="url(#filter0_d_62_838)">
<rect width="80" height="80" rx="10" fill="url(#paint0_linear_62_838)"/>
<g filter="url(#filter1_i_62_838)">
<path d="M59.6021 34.4854C60.6027 35.0175 61.4397 35.8118 62.0233 36.7833C62.607 37.7547 62.9154 38.8667 62.9154 40C62.9154 41.1333 62.607 42.2452 62.0233 43.2167C61.4397 44.1881 60.6027 44.9825 59.6021 45.5146L32.9104 60.0292C28.6125 62.3687 23.3333 59.3271 23.3333 54.5167V25.4854C23.3333 20.6729 28.6125 17.6333 32.9104 19.9687L59.6021 34.4854Z" fill="white"/>
</g>
</g>
<defs>
<filter id="filter0_d_62_838" x="0" y="0" width="80" height="84" filterUnits="userSpaceOnUse" color-interpolation-filters="sRGB">
<feFlood flood-opacity="0" result="BackgroundImageFix"/>
<feColorMatrix in="SourceAlpha" type="matrix" values="0 0 0 0 0 0 0 0 0 0 0 0 0 0 0 0 0 0 127 0" result="hardAlpha"/>
<feOffset dy="4"/>
<feComposite in2="hardAlpha" operator="out"/>
<feColorMatrix type="matrix" values="0 0 0 0 0.3625 0 0 0 0 0.0108052 0 0 0 0 0.0108052 0 0 0 0.75 0"/>
<feBlend mode="normal" in2="BackgroundImageFix" result="effect1_dropShadow_62_838"/>
<feBlend mode="normal" in="SourceGraphic" in2="effect1_dropShadow_62_838" result="shape"/>
</filter>
<filter id="filter1_i_62_838" x="23.3333" y="19.166" width="39.582" height="43.668" filterUnits="userSpaceOnUse" color-interpolation-filters="sRGB">
<feFlood flood-opacity="0" result="BackgroundImageFix"/>
<feBlend mode="normal" in="SourceGraphic" in2="BackgroundImageFix" result="shape"/>
<feColorMatrix in="SourceAlpha" type="matrix" values="0 0 0 0 0 0 0 0 0 0 0 0 0 0 0 0 0 0 127 0" result="hardAlpha"/>
<feOffset dy="2"/>
<feGaussianBlur stdDeviation="2"/>
<feComposite in2="hardAlpha" operator="arithmetic" k2="-1" k3="1"/>
<feColorMatrix type="matrix" values="0 0 0 0 0.667248 0 0 0 0 0 0 0 0 0 0 0 0 0 0.25 0"/>
<feBlend mode="normal" in2="shape" result="effect1_innerShadow_62_838"/>
</filter>
<linearGradient id="paint0_linear_62_838" x1="40" y1="0" x2="40" y2="80" gradientUnits="userSpaceOnUse">
<stop stop-color="#EDAC52"/>
<stop offset="1" stop-color="#F74B4B"/>
</linearGradient>
</defs>
</svg>
