<svg width="18" height="18" viewBox="0 0 18 18" fill="none" xmlns="http://www.w3.org/2000/svg">
<path fill-rule="evenodd" clip-rule="evenodd" d="M0.75 0C0.551088 0 0.360322 0.0790178 0.21967 0.21967C0.0790178 0.360322 0 0.551088 0 0.75V17.25C0 17.4489 0.0790178 17.6397 0.21967 17.7803C0.360322 17.921 0.551088 18 0.75 18H17.25C17.4489 18 17.6397 17.921 17.7803 17.7803C17.921 17.6397 18 17.4489 18 17.25V0.75C18 0.551088 17.921 0.360322 17.7803 0.21967C17.6397 0.0790178 17.4489 0 17.25 0H0.75ZM8.031 12.531L14.781 5.781L13.7205 4.719L7.5 10.9395L4.281 7.719L3.219 8.781L6.969 12.531C7.03867 12.6008 7.12143 12.6563 7.21255 12.6941C7.30367 12.7319 7.40135 12.7513 7.5 12.7513C7.59865 12.7513 7.69633 12.7319 7.78745 12.6941C7.87857 12.6563 7.96133 12.6008 8.031 12.531Z" fill="url(#paint0_linear_70_898)"/>
<defs>
<linearGradient id="paint0_linear_70_898" x1="9" y1="0" x2="9" y2="18" gradientUnits="userSpaceOnUse">
<stop stop-color="#31F705"/>
<stop offset="1" stop-color="#007D00"/>
</linearGradient>
</defs>
</svg>
