<svg width="21" height="21" viewBox="0 0 21 21" fill="none" xmlns="http://www.w3.org/2000/svg">
<path d="M4.10163 0.685699H17.4985C19.3486 0.685699 20.8477 2.18514 20.8477 4.03491V17.4317C20.8477 19.2815 19.3482 20.7809 17.4985 20.7809H4.10163C2.25186 20.7809 0.752419 19.2815 0.752419 17.4317V4.03491C0.752419 2.18514 2.25186 0.685699 4.10163 0.685699ZM4.77214 14.3501L7.18323 16.7619L10.8007 13.1444L14.4172 16.7619L16.8289 14.3501L13.2118 10.7333L16.8289 7.11584L14.4172 4.70475L10.8007 8.32155L7.18323 4.70475L4.77214 7.11584L8.38894 10.7333L4.77214 14.3501Z" fill="url(#paint0_linear_72_936)"/>
<defs>
<linearGradient id="paint0_linear_72_936" x1="10.8" y1="0.685699" x2="10.8" y2="20.7809" gradientUnits="userSpaceOnUse">
<stop stop-color="#FF6A6C"/>
<stop offset="1" stop-color="#A20000"/>
</linearGradient>
</defs>
</svg>
