<svg width="30" height="30" viewBox="0 0 30 30" fill="none" xmlns="http://www.w3.org/2000/svg">
<path d="M27.875 14.3125V26.25C27.875 26.681 27.7042 27.0947 27.3994 27.3994C27.0947 27.7042 26.681 27.875 26.25 27.875H3.75C3.31902 27.875 2.90533 27.7042 2.60059 27.3994C2.29584 27.0947 2.125 26.681 2.125 26.25V14.3125H27.875Z" fill="#8B8B8B" stroke="#8B8B8B" stroke-width="0.5"/>
<path d="M10.4063 8.4375H3.75C3.25272 8.4375 2.77581 8.63505 2.42417 8.98668C2.07254 9.33831 1.875 9.81522 1.875 10.3125V14.0625C1.875 15.0571 2.27009 16.0109 2.97335 16.7142C3.67661 17.4174 4.63044 17.8125 5.625 17.8125H24.375C25.3696 17.8125 26.3234 17.4174 27.0266 16.7142C27.7299 16.0109 28.125 15.0571 28.125 14.0625V10.3125C28.125 9.81522 27.9275 9.33831 27.5758 8.98668C27.2242 8.63505 26.7473 8.4375 26.25 8.4375H19.5937C19.3767 7.3794 18.8011 6.42866 17.9641 5.74592C17.1271 5.06318 16.0801 4.69031 15 4.69031C13.9199 4.69031 12.8729 5.06318 12.0359 5.74592C11.1989 6.42866 10.6233 7.3794 10.4063 8.4375ZM12.3469 8.4375C12.5406 7.88857 12.8998 7.41322 13.3749 7.07699C13.8501 6.74077 14.4179 6.56021 15 6.56021C15.5821 6.56021 16.1499 6.74077 16.6251 7.07699C17.1002 7.41322 17.4594 7.88857 17.6531 8.4375H12.3469Z" fill="#6D4534"/>
<path d="M12.1875 17.8125L15 16.875L17.8125 17.8125V19.6875C17.8125 19.9361 17.7137 20.1746 17.5379 20.3504C17.3621 20.5262 17.1236 20.625 16.875 20.625H13.125C12.8764 20.625 12.6379 20.5262 12.4621 20.3504C12.2863 20.1746 12.1875 19.9361 12.1875 19.6875V17.8125Z" fill="#D3883E"/>
<path d="M12.1875 16.875C12.1875 16.6264 12.2863 16.3879 12.4621 16.2121C12.6379 16.0363 12.8764 15.9375 13.125 15.9375H16.875C17.1236 15.9375 17.3621 16.0363 17.5379 16.2121C17.7137 16.3879 17.8125 16.6264 17.8125 16.875V17.8125H12.1875V16.875Z" fill="#E19747"/>
</svg>
